<?xml version="1.0" encoding="utf-8"?>
<!-- Generator: Adobe Illustrator 19.2.0, SVG Export Plug-In . SVG Version: 6.00 Build 0)  -->
<svg version="1.1" id="Слой_1" xmlns="http://www.w3.org/2000/svg" xmlns:xlink="http://www.w3.org/1999/xlink" x="0px" y="0px"
	 viewBox="0 0 137.5 125.1" style="enable-background:new 0 0 137.5 125.1;" xml:space="preserve">
<style type="text/css">
	.st0{display:none;}
	.st1{display:inline;}
	.st2{fill:none;stroke:#273238;stroke-width:3;stroke-linecap:round;stroke-miterlimit:10;stroke-dasharray:1.9941,11.9648;}
	.st3{fill:none;stroke:#4DAF4F;stroke-width:3;stroke-miterlimit:10;}
	.st4{fill:none;stroke:#4DAF4F;stroke-width:3;stroke-linecap:round;stroke-miterlimit:10;}
	.st5{display:inline;fill:none;stroke:#273238;stroke-width:3;stroke-miterlimit:10;}
	.st6{fill:none;stroke:#273238;stroke-width:3;stroke-miterlimit:10;}
	.st7{display:inline;fill:none;stroke:#4DAF4F;stroke-width:3;stroke-linecap:round;stroke-miterlimit:10;}
	.st8{fill:none;stroke:#273238;stroke-width:3;stroke-linecap:round;stroke-miterlimit:10;stroke-dasharray:2,12;}
	.st9{fill:#FFFFFF;}
	.st10{fill:none;stroke:#273238;stroke-width:3;stroke-linecap:round;stroke-miterlimit:10;stroke-dasharray:2.0471,12.2827;}
	.st11{display:inline;fill:none;stroke:#273238;stroke-width:3;stroke-linecap:round;stroke-miterlimit:10;stroke-dasharray:2,12;}
	.st12{display:inline;fill:#FFFFFF;stroke:#273238;stroke-width:3;stroke-linecap:round;stroke-miterlimit:10;}
	.st13{display:inline;fill:#FFFFFF;stroke:#4DAF4F;stroke-width:3;stroke-miterlimit:10;}
</style>
<g class="st0">
	<g class="st1">
		<circle class="st2" cx="52.5" cy="64.5" r="40"/>
	</g>
	<g class="st1">
		<line class="st3" x1="44.5" y1="47.5" x2="44.5" y2="81.5"/>
		<line class="st4" x1="39" y1="74" x2="64" y2="74"/>
		<path class="st3" d="M43,48h12.6c5.5,0,10,4.5,10,10c0,5.5-4.5,10-10,10H44"/>
		<line class="st4" x1="39" y1="68" x2="51" y2="68"/>
	</g>
	<circle class="st5" cx="52.5" cy="64.5" r="50"/>
	<path class="st5" d="M44.2,14.8c6.2-2.8,13.1-4.3,20.3-4.3c27.6,0,50,22.4,50,50c0,24.1-17.1,44.3-39.8,49"/>
</g>
<g class="st0">
	<g class="st1">
		<path class="st6" d="M76.4,8.5c2.7-2.7,8.1-4.7,11.9-4.5l34.5,2.3c3.8,0.3,7.2,3.6,7.4,7.4l2.3,34.5c0.3,3.8-1.8,9.2-4.5,11.9
			l-60.1,60.1c-2.7,2.7-7.2,2.7-9.9,0L16.3,78.5c-2.7-2.7-2.7-7.2,0-9.9L76.4,8.5z"/>
	</g>
	<ellipse transform="matrix(0.7071 -0.7071 0.7071 0.7071 7.4839 82.6855)" class="st7" cx="103.6" cy="32.3" rx="7.8" ry="7.8"/>
	<g class="st1">
		<path class="st8" d="M80.1,17.6c1.6-1.6,4.6-2.8,6.8-2.8l30.4,0.4c2.2,0,4,1.8,4,4l0.4,30.4c0,2.2-1.2,5.3-2.8,6.8l-53.1,53.1
			c-1.6,1.6-4.1,1.6-5.7,0L26.9,76.3c-1.6-1.6-1.6-4.1,0-5.7L80.1,17.6z"/>
	</g>
	<g class="st1">
		<path class="st6" d="M57.3,118.8c-2.6,2.6-2.6,2.6-2.6,2.6c-2,2-5.9,1.5-8.7-1.2L4.3,78.5c-2.7-2.7-2.7-7.2,0-9.9L64.4,8.5
			c2.7-2.7,7.9-4.8,11.5-4.5c0,0,0,0,8.3,0.5"/>
	</g>
</g>
<g>
	<g>
		<path class="st9" d="M110.9,102.3c0.7,0.8,0.4,1.6-0.7,1.7L98.4,105c-1.1,0.1-2.2,1-2.4,2.1l-2.6,11.5c-0.2,1.1-1,1.3-1.7,0.4
			l-29-33.4c-0.7-0.8-0.6-2.1,0.2-2.8L79,68.8c0.8-0.7,2.1-0.6,2.8,0.2L110.9,102.3z"/>
		<path class="st6" d="M110.9,102.3c0.7,0.8,0.4,1.6-0.7,1.7L98.4,105c-1.1,0.1-2.2,1-2.4,2.1l-2.6,11.5c-0.2,1.1-1,1.3-1.7,0.4
			l-29-33.4c-0.7-0.8-0.6-2.1,0.2-2.8L79,68.8c0.8-0.7,2.1-0.6,2.8,0.2L110.9,102.3z"/>
	</g>
	<g>
		<path class="st9" d="M2.6,102.3c-0.7,0.8-0.4,1.6,0.7,1.7l11.8,0.9c1.1,0.1,2.2,1,2.4,2.1l2.6,11.5c0.2,1.1,1,1.3,1.7,0.4l29-33.4
			c0.7-0.8,0.6-2.1-0.2-2.8L34.5,68.8c-0.8-0.7-2.1-0.6-2.8,0.2L2.6,102.3z"/>
		<path class="st6" d="M2.6,102.3c-0.7,0.8-0.4,1.6,0.7,1.7l11.8,0.9c1.1,0.1,2.2,1,2.4,2.1l2.6,11.5c0.2,1.1,1,1.3,1.7,0.4l29-33.4
			c0.7-0.8,0.6-2.1-0.2-2.8L34.5,68.8c-0.8-0.7-2.1-0.6-2.8,0.2L2.6,102.3z"/>
	</g>
	<g>
		<path class="st9" d="M94.9,82.7c-2.5,1-5.2,4.1-5.8,6.8l-1.7,7.1c-0.6,2.7-3.4,4.5-6.1,4l-7.2-1.3c-2.7-0.5-6.5,0.7-8.5,2.6
			l-5.3,5.1c-2,1.9-5.2,1.9-7.3,0l-5.3-5c-2-1.9-5.9-3-8.6-2.4l-7.2,1.4c-2.7,0.5-5.4-1.2-6.1-3.9L24,89.9c-0.7-2.7-3.3-5.7-5.9-6.7
			l-6.8-2.7c-2.6-1-3.9-4-3-6.6l2.4-6.9c0.9-2.6,0.3-6.6-1.3-8.8L5,52.4c-1.6-2.2-1.2-5.5,1-7.2l5.8-4.6c2.2-1.7,3.8-5.4,3.6-8.1
			L15,25.2c-0.1-2.7,2-5.2,4.7-5.5L27,19c2.7-0.3,6.1-2.5,7.5-4.9l3.6-6.4c1.4-2.4,4.5-3.3,6.9-2.1L51.6,9c2.5,1.2,6.5,1.2,8.9-0.1
			l6.5-3.4c2.4-1.3,5.6-0.4,7,2l3.7,6.3c1.4,2.4,4.8,4.5,7.5,4.8l7.3,0.6c2.7,0.2,4.9,2.7,4.8,5.4L97.1,32c-0.1,2.7,1.6,6.4,3.7,8.1
			l5.8,4.5c2.2,1.7,2.7,4.9,1.1,7.1l-4.2,6c-1.6,2.2-2.1,6.2-1.2,8.8l2.4,6.9c0.9,2.6-0.4,5.6-3,6.6L94.9,82.7z"/>
		<path class="st6" d="M94.9,82.7c-2.5,1-5.2,4.1-5.8,6.8l-1.7,7.1c-0.6,2.7-3.4,4.5-6.1,4l-7.2-1.3c-2.7-0.5-6.5,0.7-8.5,2.6
			l-5.3,5.1c-2,1.9-5.2,1.9-7.3,0l-5.3-5c-2-1.9-5.9-3-8.6-2.4l-7.2,1.4c-2.7,0.5-5.4-1.2-6.1-3.9L24,89.9c-0.7-2.7-3.3-5.7-5.9-6.7
			l-6.8-2.7c-2.6-1-3.9-4-3-6.6l2.4-6.9c0.9-2.6,0.3-6.6-1.3-8.8L5,52.4c-1.6-2.2-1.2-5.5,1-7.2l5.8-4.6c2.2-1.7,3.8-5.4,3.6-8.1
			L15,25.2c-0.1-2.7,2-5.2,4.7-5.5L27,19c2.7-0.3,6.1-2.5,7.5-4.9l3.6-6.4c1.4-2.4,4.5-3.3,6.9-2.1L51.6,9c2.5,1.2,6.5,1.2,8.9-0.1
			l6.5-3.4c2.4-1.3,5.6-0.4,7,2l3.7,6.3c1.4,2.4,4.8,4.5,7.5,4.8l7.3,0.6c2.7,0.2,4.9,2.7,4.8,5.4L97.1,32c-0.1,2.7,1.6,6.4,3.7,8.1
			l5.8,4.5c2.2,1.7,2.7,4.9,1.1,7.1l-4.2,6c-1.6,2.2-2.1,6.2-1.2,8.8l2.4,6.9c0.9,2.6-0.4,5.6-3,6.6L94.9,82.7z"/>
	</g>
	<g>
		<circle class="st10" cx="57.2" cy="55" r="36.5"/>
	</g>
	<g>
		<path class="st4" d="M43.2,56.5l6.7,9.7c1.3,1.8,3.3,1.8,4.5,0L71.2,41"/>
	</g>
</g>
<g class="st0">
	<path class="st5" d="M120.5,109c0,4.4-3.6,8-8,8H9.5c-4.4,0-8-3.6-8-8V26c0-4.4,3.6-8,8-8h103c4.4,0,8,3.6,8,8V109z"/>
	<line class="st5" x1="3" y1="38" x2="122" y2="38"/>
	<line class="st11" x1="25" y1="60" x2="105" y2="60"/>
	<path class="st12" d="M28.5,21.5c0,1.9-1.6,3.5-3.5,3.5h0c-1.9,0-3.5-1.6-3.5-3.5v-10C21.5,9.6,23.1,8,25,8h0
		c1.9,0,3.5,1.6,3.5,3.5V21.5z"/>
	<path class="st12" d="M100.5,21.5c0,1.9-1.6,3.5-3.5,3.5l0,0c-1.9,0-3.5-1.6-3.5-3.5v-10C93.5,9.6,95.1,8,97,8l0,0
		c1.9,0,3.5,1.6,3.5,3.5V21.5z"/>
	<line class="st11" x1="25" y1="78" x2="105" y2="78"/>
	<line class="st11" x1="25" y1="96" x2="105" y2="96"/>
	<circle class="st13" cx="113.5" cy="66" r="22.5"/>
	<polyline class="st7" points="113.5,52.5 113.5,66 121,71.8 	"/>
</g>
</svg>
