<?xml version="1.0" encoding="utf-8"?>
<!-- Generator: Adobe Illustrator 19.2.0, SVG Export Plug-In . SVG Version: 6.00 Build 0)  -->
<svg version="1.1" id="Слой_1" xmlns="http://www.w3.org/2000/svg" xmlns:xlink="http://www.w3.org/1999/xlink" x="0px" y="0px"
	 viewBox="0 0 73 73" style="enable-background:new 0 0 73 73;" xml:space="preserve">
<style type="text/css">
	.st0{fill:#FFFFFF;}
	.st1{fill:#273238;}
	.st2{fill:#4DAF4F;}
</style>
<g>
	<g>
		<circle class="st0" cx="36.5" cy="36.5" r="35"/>
		<path class="st1" d="M36.5,73C16.4,73,0,56.6,0,36.5S16.4,0,36.5,0S73,16.4,73,36.5S56.6,73,36.5,73z M36.5,3C18,3,3,18,3,36.5
			S18,70,36.5,70C55,70,70,55,70,36.5S55,3,36.5,3z"/>
	</g>
	<path class="st2" d="M38.6,50.5H27.4l8.4-14l-8.4-14h11l8.4,13.7L38.6,50.5z M32.7,47.5h4.2l6.4-11.3l-6.6-10.7h-4l6.6,11
		L32.7,47.5z"/>
	<g>
		<path class="st1" d="M58.9,23c-0.5,0-1-0.2-1.2-0.7c-0.6-0.9-1.3-1.8-2-2.6c-0.5-0.6-0.5-1.6,0.1-2.1c0.6-0.5,1.6-0.5,2.1,0.1
			c0.8,0.9,1.6,1.9,2.3,2.9c0.5,0.7,0.3,1.6-0.4,2.1C59.5,22.9,59.2,23,58.9,23z"/>
		<path class="st1" d="M63.5,38.5C63.5,38.5,63.5,38.5,63.5,38.5c-0.9,0-1.5-0.5-1.5-1.4c0-0.3,0-0.5,0-0.7c0-1-0.1-1.9-0.2-2.8
			c-0.1-0.8,0.5-1.5,1.3-1.6c0.8-0.1,1.6,0.5,1.7,1.3c0.1,1.1,0.2,2.1,0.2,3.2c0,0.3,0,0.4,0,0.7C65,38,64.3,38.5,63.5,38.5z"/>
		<path class="st1" d="M58.2,54.1c-0.3,0-0.6-0.1-0.9-0.3c-0.7-0.5-0.8-1.4-0.3-2.1c0.7-0.9,1.3-1.8,1.8-2.8c0.4-0.7,1.3-1,2-0.6
			c0.7,0.4,1,1.3,0.6,2c-0.6,1.1-1.3,2.1-2,3.1C59.1,53.9,58.6,54.1,58.2,54.1z"/>
	</g>
	<path class="st1" d="M36.5,65C20.8,65,8,52.2,8,36.5c0-6.7,2.4-13.3,6.7-18.4c0.5-0.6,1.5-0.7,2.1-0.2c0.6,0.5,0.7,1.5,0.2,2.1
		c-3.9,4.6-6,10.4-6,16.5C11,50.6,22.4,62,36.5,62c4.6,0,9.1-1.2,13-3.5c0.7-0.4,1.6-0.2,2.1,0.5c0.4,0.7,0.2,1.6-0.5,2.1
		C46.6,63.6,41.6,65,36.5,65z"/>
	<path class="st1" d="M23,14.6c-0.5,0-1-0.3-1.3-0.7c-0.4-0.7-0.2-1.6,0.5-2C26.5,9.3,31.5,8,36.5,8c4.2,0,8.3,0.9,12.1,2.7
		c0.7,0.4,1.1,1.2,0.7,2c-0.4,0.7-1.2,1.1-2,0.7c-3.4-1.6-7-2.4-10.8-2.4c-4.5,0-8.9,1.2-12.8,3.4C23.5,14.6,23.2,14.6,23,14.6z"/>
</g>
</svg>
