<?xml version="1.0" encoding="utf-8"?>
<!-- Generator: Adobe Illustrator 19.2.0, SVG Export Plug-In . SVG Version: 6.00 Build 0)  -->
<svg version="1.1" id="Слой_1" xmlns="http://www.w3.org/2000/svg" xmlns:xlink="http://www.w3.org/1999/xlink" x="0px" y="0px"
	 viewBox="0 0 44.8 46" style="enable-background:new 0 0 44.8 46;" xml:space="preserve">
<style type="text/css">
	.st0{fill:#DCA027;}
	.st1{fill:#FDC113;}
	.st2{fill:#EF4523;}
	.st3{fill:#DC3326;}
	.st4{fill:#FEF7E2;}
</style>
<g>
	<path class="st0" d="M13.9,11.1L8.1,7.3L8,7.1C7.9,7,7.3,6,7.6,4.8C7.7,4.3,8,3.6,9,3c1.9-1.1,3.5,0,4.1,1l0.1,0.2L13.9,11.1z
		 M9.6,5.9l1.9,1.2l-0.2-2.3C11,4.6,10.6,4.4,10,4.7C9.6,5,9.5,5.2,9.5,5.3C9.5,5.5,9.5,5.8,9.6,5.9z"/>
	<g>
		<g>
			<path class="st1" d="M12.7,7.6c1.4-0.9,3.3-0.4,4.1,1l0.6,1c0,0-0.1,1.6-2.5,3.1s-4.4,0.8-4.4,0.8L10,12.8
				c-0.9-1.4-0.4-3.3,1-4.1L12.7,7.6z"/>
		</g>
	</g>
	<path class="st2" d="M18.1,43.5C8.8,41.1,3,31.7,5.3,22.3S17.1,7.2,26.5,9.5s15.1,11.8,12.8,21.2C37,40,27.5,45.8,18.1,43.5z"/>
	<g>
		<path class="st3" d="M27.1,13.7l-7.9-1.5l3.4,7.3l-3,6.4l7.4-0.3l5.8,5.6l1.4-7.4l4.9-2.3c-0.3-0.9-0.6-1.8-1-2.6l-4-2.5l-0.8-3.5
			c-0.9-0.8-1.9-1.4-3-2L27.1,13.7z"/>
		<path class="st3" d="M22.1,34.1l-2,5.2l-6.5,2.4c1.4,0.8,2.8,1.4,4.4,1.8c5.1,1.3,10.2,0.1,14.2-2.7l0,0l2.3-3.1L26.7,38
			L22.1,34.1z"/>
		<path class="st3" d="M6,32.7L6,32.7L6,32.7L6,32.7L6,32.7l5.1,4.3L11,30.1l3.6-3.2L10,24.6l-2.2-6.2l-2.2,3.3H5.5
			c-0.1,0.2-0.1,0.4-0.2,0.6C4.4,25.9,4.7,29.5,6,32.7z"/>
	</g>
	<g>
		<polygon class="st4" points="32.4,22.5 36.8,20.4 32.3,17.6 31.3,12.7 27.7,15.8 22.7,14.8 24.8,19.5 22.8,23.8 27.8,23.6 
			31.5,27.2 		"/>
		<path class="st4" d="M21.7,40.9l-4.1,1.5l2.6,1.4c2.8,0.4,5.6,0,8.1-0.9l2.2-3.1L26,40l-3-2.6L21.7,40.9z"/>
		<path class="st4" d="M6.6,30.5l2.4,2v-3.3l2.1-1.8L8.4,26l-1.1-3.2l-1.6,2.4H5c-0.1,1.9,0,3.8,0.5,5.5L6.6,30.5z"/>
	</g>
</g>
</svg>
