<?xml version="1.0" encoding="utf-8"?>
<!-- Generator: Adobe Illustrator 19.2.0, SVG Export Plug-In . SVG Version: 6.00 Build 0)  -->
<svg version="1.1" id="Слой_1" xmlns="http://www.w3.org/2000/svg" xmlns:xlink="http://www.w3.org/1999/xlink" x="0px" y="0px"
	 viewBox="0 0 44.8 46" style="enable-background:new 0 0 44.8 46;" xml:space="preserve">
<style type="text/css">
	.st0{fill:#398F43;}
	.st1{fill:#FFCB2A;}
	.st2{fill:#1F5F30;}
	.st3{fill:#71CDDD;}
</style>
<g>
	<g>
		<path class="st0" d="M22.2,19L6.4,40.3c0,0,5.3,4.2,15.9,4.2s15.9-4.3,15.9-4.3L22.2,19z"/>
		<path class="st0" d="M22.2,14.8l-12.7,16c0,0,4.3,3.2,12.7,3.1c8.5,0,12.7-3.2,12.7-3.2L22.2,14.8z"/>
		<path class="st0" d="M22.2,9.5l-9.5,12.8c0,0,3.2,2.1,9.6,2.1s9.5-2.2,9.5-2.2L22.2,9.5z"/>
	</g>
	<polygon class="st1" points="22.2,2 24,5.3 27.5,5.8 25,8.3 25.5,12.1 22.2,10.4 18.9,12.2 19.4,8.4 16.9,5.9 20.4,5.3 	"/>
	<g>
		<path class="st2" d="M33.5,33.9l-1.3-1.7c-2.1,0.8-5.4,1.7-9.8,1.8c-4.5,0-7.7-0.8-9.9-1.7l-1.3,1.8c2.3,1,6.1,2.1,11.2,2
			S31.1,34.8,33.5,33.9z"/>
		<path class="st2" d="M22.3,24.3c-3,0-5.3-0.4-6.9-0.9L14,25.1c1.8,0.6,4.5,1.3,8.3,1.3s6.5-0.7,8.3-1.4l-1.4-1.8
			C27.5,23.8,25.3,24.3,22.3,24.3z"/>
		<polygon class="st2" points="22.2,10.4 21.1,11 18,15.1 19.9,14 22.2,12.8 24.5,14 26.4,15 23.4,11 		"/>
	</g>
	<g>
		
			<ellipse transform="matrix(1 -3.893018e-003 3.893018e-003 1 -6.758340e-002 8.032827e-002)" class="st3" cx="20.6" cy="17.4" rx="1.6" ry="1.6"/>
		
			<ellipse transform="matrix(1 -3.893018e-003 3.893018e-003 1 -7.805799e-002 9.903638e-002)" class="st3" cx="25.4" cy="20.1" rx="1.1" ry="1.1"/>
		
			<ellipse transform="matrix(1 -3.893018e-003 3.893018e-003 1 -0.1112 6.639896e-002)" class="st3" cx="17" cy="28.6" rx="1.1" ry="1.1"/>
		
			<ellipse transform="matrix(1 -3.893018e-003 3.893018e-003 1 -0.1232 8.277223e-002)" class="st3" cx="21.2" cy="31.7" rx="1.1" ry="1.1"/>
		
			<ellipse transform="matrix(1 -3.893018e-003 3.893018e-003 1 -0.1606 8.712836e-002)" class="st3" cx="22.3" cy="41.3" rx="1.1" ry="1.1"/>
		
			<ellipse transform="matrix(1 -3.893018e-003 3.893018e-003 1 -0.1543 0.1222)" class="st3" cx="31.3" cy="39.7" rx="1.6" ry="1.6"/>
		
			<ellipse transform="matrix(1 -3.893018e-003 3.893018e-003 1 -0.115 0.1034)" class="st3" cx="26.5" cy="29.6" rx="1.6" ry="1.6"/>
		
			<ellipse transform="matrix(1 -3.893018e-003 3.893018e-003 1 -0.1525 6.025033e-002)" class="st3" cx="15.4" cy="39.2" rx="1.6" ry="1.6"/>
	</g>
</g>
</svg>
