<?xml version="1.0" encoding="utf-8"?>
<!-- Generator: Adobe Illustrator 19.2.0, SVG Export Plug-In . SVG Version: 6.00 Build 0)  -->
<svg version="1.1" id="Слой_1" xmlns="http://www.w3.org/2000/svg" xmlns:xlink="http://www.w3.org/1999/xlink" x="0px" y="0px"
	 viewBox="0 0 44.8 46" style="enable-background:new 0 0 44.8 46;" xml:space="preserve">
<style type="text/css">
	.st0{fill:none;stroke:#ffffff;stroke-width:2;stroke-linecap:square;stroke-miterlimit:10;}
	.st1{fill:#ffffff;}
	.st2{fill:none;stroke:#ffffff;stroke-width:2;stroke-linecap:square;stroke-miterlimit:10;}
</style>
<g>
	<g>
		<line class="st0" x1="23.3" y1="34.3" x2="23.3" y2="12.2"/>
		<line class="st0" x1="33.2" y1="28.8" x2="13.4" y2="17.7"/>
		<line class="st0" x1="13.4" y1="28.8" x2="33.2" y2="17.7"/>
		<line class="st0" x1="17.8" y1="13.7" x2="29.8" y2="33.7"/>
		<line class="st0" x1="28.8" y1="13.7" x2="16.8" y2="33.7"/>
		<line class="st0" x1="11.3" y1="23.2" x2="35.3" y2="23.2"/>
	</g>
	<g>
		<circle class="st1" cx="17.8" cy="13.7" r="1.5"/>
		<circle class="st1" cx="35.8" cy="23.2" r="1.5"/>
		<circle class="st1" cx="10.8" cy="23.2" r="1.5"/>
		<circle class="st1" cx="29.8" cy="33.7" r="1.5"/>
		<circle class="st1" cx="28.8" cy="13.7" r="1.5"/>
		<circle class="st1" cx="16.8" cy="33.7" r="1.5"/>
	</g>
	<g>
		<path class="st2" d="M6.3,32.7c2.1-1.2,4.2-2.4,6.3-3.5"/>
		<path class="st2" d="M34.5,17c1.9-1.1,3.9-2.2,5.8-3.3"/>
		<polyline class="st2" points="35,11.2 33.2,17.7 39.9,19.4 		"/>
		<polyline class="st2" points="11.6,35.3 13.4,28.8 6.7,27.1 		"/>
		<line class="st2" x1="23.3" y1="11.2" x2="23.3" y2="4.2"/>
		<polyline class="st2" points="28.2,7.4 23.3,12.2 18.4,7.4 		"/>
		<line class="st2" x1="23.3" y1="42.2" x2="23.3" y2="35.2"/>
		<polyline class="st2" points="18.4,39.1 23.3,34.3 28.2,39.1 		"/>
		<path class="st2" d="M40.3,32.7c-2.2-1.2-4.3-2.4-6.5-3.7"/>
		<polyline class="st2" points="35,35.3 33.2,28.8 39.9,27.1 		"/>
		<path class="st2" d="M12.7,17.3c-2.1-1.2-4.2-2.4-6.3-3.5"/>
		<polyline class="st2" points="11.6,11.2 13.4,17.7 6.7,19.4 		"/>
	</g>
</g>
</svg>
