<?xml version="1.0" encoding="utf-8"?>
<!-- Generator: Adobe Illustrator 19.2.0, SVG Export Plug-In . SVG Version: 6.00 Build 0)  -->
<svg version="1.1" id="Слой_1" xmlns="http://www.w3.org/2000/svg" xmlns:xlink="http://www.w3.org/1999/xlink" x="0px" y="0px"
	 viewBox="0 0 44.8 46" style="enable-background:new 0 0 44.8 46;" xml:space="preserve">
<style type="text/css">
	.st0{fill:#FCB74F;}
	.st1{fill:#79491D;}
	.st2{fill:#EF4523;}
	.st3{fill:#F58A82;}
	.st4{fill:#D0D8DC;}
	.st5{fill:#E57473;}
	.st6{fill:#90A4AE;}
	.st7{fill:#F8981D;}
</style>
<g>
	<path class="st0" d="M7.8,19.8c-0.2-13,25.8-15,26-0.3l0.1,8.6c0.1,7.2-5.7,13-12.8,13.1C13.9,41.3,8,35.5,7.9,28.4L7.8,19.8z"/>
	<g>
		<path class="st1" d="M29,24.3c0,0.9-0.7,1.7-1.7,1.7c-0.9,0-1.7-0.7-1.7-1.7c0-0.9,0.7-1.7,1.7-1.7C28.2,22.6,29,23.4,29,24.3"/>
		<path class="st1" d="M17,24.4c0,0.9-0.7,1.7-1.7,1.7c-0.9,0-1.7-0.7-1.7-1.7c0-0.9,0.7-1.7,1.7-1.7C16.2,22.7,17,23.5,17,24.4"/>
	</g>
	<path class="st2" d="M35.7,13.1c2.9,1.6,4,3,4,3s-5.1-14-15.1-13.9C5.6,2.4,5.8,18.4,5.8,18.4l28.9-0.3
		C34.7,17.1,34.1,12.5,35.7,13.1z"/>
	<g>
		
			<ellipse transform="matrix(0.9999 -1.194269e-002 1.194269e-002 0.9999 -0.3668 0.3787)" class="st3" cx="31.5" cy="30.9" rx="3.9" ry="3.9"/>
		
			<ellipse transform="matrix(0.9999 -1.194269e-002 1.194269e-002 0.9999 -0.373 0.1339)" class="st3" cx="11" cy="31.3" rx="3.9" ry="3.9"/>
	</g>
	<g>
		<path class="st4" d="M37.9,27.1c0-1.5-1.3-2.8-2.8-2.9c0.5-0.4,0.7-1.1,0.7-1.7c0-1.2-0.9-2.1-2-2.4V20h-2l0.1,7.7
			c0,1-0.2,2.5-1,3.3c-1.5,1.6-2.7,1.3-3.6,0.7c-3.3-2.2-6.5-1.5-6.5-1.5s-3.1-0.6-6.4,1.7c-0.9,0.6-2,1-3.6-0.6
			c-0.7-0.8-1-2.3-1-3.3l-0.1-7.7h-2l0,0c-1.1,0.2-2,1.2-2,2.4c0,0.7,0.3,1.3,0.8,1.7c-1.5,0.1-2.7,1.4-2.7,2.9c0,1.3,1,2.5,2.2,2.8
			c-0.6,0.9-1.1,1.8-1.1,2.8c0,1.9,1.5,3.4,3.4,3.4c-0.2,0.5-0.3,1-0.3,1.5c0,1.9,1.6,3.5,3.5,3.5c1,0,1.9-0.5,2.5-1.2
			c0,0.2-0.1,0.4-0.1,0.6c0,1.9,1.6,3.5,3.5,3.5c1.8,0,3.2-1.4,3.4-3.1l0,0l0,0c0.2,1.7,1.7,3,3.5,3c1.9,0,3.5-1.6,3.5-3.5
			c0-0.2,0-0.4-0.1-0.6c0.6,0.7,1.6,1.1,2.6,1.1c1.9,0,3.5-1.6,3.5-3.5c0-0.5-0.1-1.1-0.4-1.5c1.9-0.1,3.3-1.6,3.3-3.5
			c0-1-0.5-2-1.2-2.6C37,29.6,37.9,28.5,37.9,27.1z"/>
		<path class="st4" d="M36.8,17.6c0-0.7-0.4-1.2-1-1.4V16c0.6-0.2,1-0.8,1-1.4c0-0.8-0.7-1.5-1.5-1.5c-0.7,0-1.2,0.4-1.4,1h-0.2
			c-0.2-0.6-0.8-1-1.4-1c-0.7,0-1.2,0.4-1.4,1h-0.2c-0.2-0.6-0.8-1-1.4-1c-0.7,0-1.2,0.4-1.4,1h-0.2c-0.2-0.6-0.8-1-1.4-1
			c-0.7,0-1.2,0.4-1.4,1h-0.2c-0.2-0.6-0.8-1-1.4-1c-0.7,0-1.2,0.4-1.4,1h-0.2c-0.2-0.6-0.8-1-1.4-1c-0.7,0-1.2,0.4-1.4,1h-0.2
			c-0.2-0.6-0.8-1-1.4-1c-0.7,0-1.2,0.4-1.4,1h-0.2c-0.2-0.6-0.8-1-1.4-1c-0.7,0-1.2,0.4-1.4,1h-0.2c-0.2-0.6-0.8-1-1.4-1
			c-0.7,0-1.2,0.4-1.4,1H9.7c-0.2-0.6-0.8-1-1.4-1s-1.2,0.4-1.4,1H6.7c-0.2-0.6-0.8-1-1.4-1c-0.8,0-1.5,0.7-1.5,1.5
			c0,0.7,0.4,1.2,1,1.4v0.2c-0.6,0.2-1,0.8-1,1.4c0,0.7,0.4,1.2,1,1.4v0.2c-0.6,0.2-1,0.8-1,1.4c0,0.8,0.7,1.5,1.5,1.5
			c0.7,0,1.2-0.4,1.4-1h0.2c0.2,0.6,0.8,1,1.4,1c0.7,0,1.2-0.4,1.4-1h0.2c0.2,0.6,0.8,1,1.4,1c0.7,0,1.2-0.4,1.4-1h0.2
			c0.2,0.6,0.8,1,1.4,1s1.2-0.4,1.4-1h0.2c0.2,0.6,0.8,1,1.4,1c0.7,0,1.2-0.4,1.4-1h0.2c0.2,0.6,0.8,1,1.4,1c0.7,0,1.2-0.4,1.4-1
			h0.2c0.2,0.6,0.8,1,1.4,1s1.2-0.4,1.4-1h0.2c0.2,0.6,0.8,1,1.4,1c0.7,0,1.2-0.4,1.4-1h0.2c0.2,0.6,0.8,1,1.4,1
			c0.7,0,1.2-0.4,1.4-1h0.2c0.2,0.6,0.8,1,1.4,1c0.6,0,1.2-0.4,1.4-1h0.2c0.2,0.6,0.8,1,1.4,1c0.8,0,1.5-0.7,1.5-1.5
			c0-0.7-0.4-1.2-1-1.4V19C36.4,18.8,36.8,18.2,36.8,17.6z"/>
		<path class="st4" d="M41.1,15.1c0.6-0.4,0.8-1.1,0.6-1.7l0,0c-0.2-0.7-0.9-1-1.5-1c0.2-0.6-0.1-1.3-0.7-1.7
			c-0.6-0.4-1.4-0.2-1.8,0.2c-0.3-0.6-0.9-1-1.6-0.8c-0.7,0.1-1.2,0.7-1.2,1.3c-0.6-0.3-1.3-0.1-1.8,0.4c-0.4,0.5-0.5,1.3-0.1,1.8
			c-0.6,0.2-1.1,0.8-1.1,1.5s0.4,1.2,1,1.4c-0.3,0.5-0.3,1.2,0.1,1.7c0.4,0.5,1.2,0.7,1.8,0.4c0,0.7,0.5,1.2,1.2,1.4
			c0.1,0,0.2,0,0.3,0c0.6,0,1.1-0.3,1.3-0.8c0.5,0.5,1.2,0.6,1.8,0.2c0.6-0.3,0.9-1,0.7-1.7c0.7,0.1,1.3-0.3,1.6-1
			C41.9,16.2,41.6,15.5,41.1,15.1z"/>
	</g>
	<path class="st5" d="M17,35.3c0,0,1,2,4,2s4-2,4-2H17z"/>
	<g>
		<g>
			<path class="st6" d="M9.8,21.4L9.8,21.4c-0.3,0.6-0.8,1-1.5,1s-1.2-0.4-1.4-1H6.7c-0.1,0.4-0.4,0.7-0.8,0.9
				c0,0.2-0.1,0.4-0.1,0.6c0,0.5,0.2,1,0.5,1.4c0.2-0.1,0.4-0.1,0.5-0.2c0.5,0.2,1,0.3,1.5,0.3s1-0.1,1.5-0.4V21.4z"/>
			<path class="st6" d="M35.2,24.1c0.4-0.4,0.6-1,0.6-1.6c0-0.2,0-0.3-0.1-0.5c-0.1,0-0.3,0.1-0.4,0.1c-0.7,0-1.2-0.4-1.4-1h-0.2
				c-0.2,0.6-0.7,1-1.4,1c-0.2,0-0.3,0-0.5-0.1v2c0.2,0,0.3,0.1,0.5,0.1c0.5,0,1-0.1,1.5-0.4C34.3,24,34.7,24.1,35.2,24.1z"/>
		</g>
		<path class="st6" d="M36.8,20.6c0-0.2-0.1-0.4-0.1-0.6c-0.2,0.1-0.3,0.1-0.5,0.1c-0.1,0-0.2,0-0.3,0c-0.7-0.1-1.2-0.7-1.2-1.4
			c-0.2,0.1-0.4,0.1-0.6,0.1c-0.4,0-0.9-0.2-1.2-0.6c-0.4-0.5-0.4-1.2-0.1-1.7c-0.6-0.2-1-0.7-1-1.4s0.5-1.3,1.1-1.5
			c-0.1-0.2-0.2-0.3-0.2-0.5c-0.1,0-0.3-0.1-0.4-0.1c-0.7,0-1.2,0.4-1.4,1h-0.2c-0.1-0.3-0.3-0.5-0.5-0.6c-0.3,0.5-0.4,1.1-0.4,1.7
			c0,0.8,0.3,1.6,0.8,2.2c0,0.8,0.3,1.6,0.8,2.2s1.3,1.1,2.1,1.2c0.1,0.1,0.2,0.2,0.3,0.3H34c0.6,1.4,1.7,0.9,1.8,0.9
			C36.3,21.9,36.8,21.3,36.8,20.6z"/>
	</g>
	<g>
		
			<ellipse transform="matrix(0.9999 -1.194269e-002 1.194269e-002 0.9999 -0.3604 0.2521)" class="st7" cx="20.9" cy="30.3" rx="2" ry="2"/>
		
			<ellipse transform="matrix(0.9999 -1.194269e-002 1.194269e-002 0.9999 -0.359 0.2759)" class="st7" cx="22.9" cy="30.2" rx="1.5" ry="1.5"/>
		
			<ellipse transform="matrix(0.9999 -1.194269e-002 1.194269e-002 0.9999 -0.3605 0.2282)" class="st7" cx="18.9" cy="30.3" rx="1.5" ry="1.5"/>
	</g>
</g>
</svg>
