<?xml version="1.0" encoding="utf-8"?>
<!-- Generator: Adobe Illustrator 19.2.0, SVG Export Plug-In . SVG Version: 6.00 Build 0)  -->
<svg version="1.1" id="Слой_1" xmlns="http://www.w3.org/2000/svg" xmlns:xlink="http://www.w3.org/1999/xlink" x="0px" y="0px"
	 viewBox="0 0 51.7 46.1" style="enable-background:new 0 0 51.7 46.1;" xml:space="preserve">
<style type="text/css">
	.st0{fill:none;stroke:#4DAF4F;stroke-width:2;stroke-miterlimit:10;}
	.st1{fill:#4DAF4F;}
</style>
<g id="chandelier">
	<path class="st0" d="M36.1,6.4"/>
	<path class="st1" d="M38.6,35.9c-3.9,0-7-3.1-7-7s3.1-7,7-7s7,3.1,7,7S42.5,35.9,38.6,35.9z M38.6,23.9c-2.8,0-5,2.2-5,5s2.2,5,5,5
		s5-2.2,5-5S41.4,23.9,38.6,23.9z"/>
	<path class="st1" d="M41.6,29.9c-0.6,0-1-0.4-1-1c0-1.1-0.9-2-2-2c-0.6,0-1-0.4-1-1s0.4-1,1-1c2.2,0,4,1.8,4,4
		C42.6,29.5,42.2,29.9,41.6,29.9z"/>
	<path class="st0" d="M33.5,13.9"/>
	<path class="st1" d="M11.9,35.9c-3.9,0-7-3.1-7-7s3.1-7,7-7s7,3.1,7,7S15.7,35.9,11.9,35.9z M11.9,23.9c-2.8,0-5,2.2-5,5s2.2,5,5,5
		s5-2.2,5-5S14.6,23.9,11.9,23.9z"/>
	<path class="st1" d="M14.9,29.9c-0.6,0-1-0.4-1-1c0-1.1-0.9-2-2-2c-0.6,0-1-0.4-1-1s0.4-1,1-1c2.2,0,4,1.8,4,4
		C15.9,29.5,15.4,29.9,14.9,29.9z"/>
	<path class="st1" d="M32,42.1h-0.2c-4.2,0-8.1-3.1-8.1-7.2V11.1h2v23.8c0,3,3,5.2,6.1,5.2H32c3,0,5.4-2,5.4-5h2
		C39.4,39.1,36.1,42.1,32,42.1z"/>
	<path class="st0" d="M32.1,11.2"/>
	<path class="st1" d="M18.1,42.3c-4.1,0-7.5-4.1-7.5-8.1h2c0,3,2.5,6.1,5.5,6.1s5.5-2.1,5.5-5.1h2C25.6,39.1,22.3,42.3,18.1,42.3z"
		/>
	<g>
		<rect x="17.7" y="3.1" class="st1" width="14" height="2"/>
		<path class="st1" d="M24.7,12.4c-3.9,0-7-3.1-7-7V3.1h14v2.3C31.7,9.3,28.6,12.4,24.7,12.4z M20.1,5.1c0,3,2.2,5,5,5s5-2,5-5
			C30.1,5.1,20.1,5.1,20.1,5.1z"/>
	</g>
</g>
</svg>
