<?xml version="1.0" encoding="utf-8"?>
<!-- Generator: Adobe Illustrator 19.2.0, SVG Export Plug-In . SVG Version: 6.00 Build 0)  -->
<svg version="1.1" id="Слой_1" xmlns="http://www.w3.org/2000/svg" xmlns:xlink="http://www.w3.org/1999/xlink" x="0px" y="0px"
	 viewBox="0 0 51.7 46.1" style="enable-background:new 0 0 51.7 46.1;" xml:space="preserve">
<style type="text/css">
	.st0{display:none;}
	.st1{display:inline;fill:#4DAF4F;}
	.st2{fill:#4DAF4F;}
	.st3{display:inline;fill:none;stroke:#4DAF4F;stroke-width:2;stroke-miterlimit:10;}
	.st4{display:inline;}
</style>
<g id="seams" class="st0">
	<path class="st1" d="M25.7,21.1c0,1.1-0.9,2-2,2h-13c-1.1,0-2-0.9-2-2v-13c0-1.1,0.9-2,2-2h13c1.1,0,2,0.9,2,2V21.1z M10.7,8.1v13
		h13v-13H10.7z"/>
	<path class="st1" d="M25.7,39.1c0,1.1-0.9,2-2,2h-13c-1.1,0-2-0.9-2-2v-13c0-1.1,0.9-2,2-2h13c1.1,0,2,0.9,2,2V39.1z M10.7,26.1v13
		h13v-13H10.7z"/>
	<path class="st1" d="M43.7,21.1c0,1.1-0.9,2-2,2h-13c-1.1,0-2-0.9-2-2v-13c0-1.1,0.9-2,2-2h13c1.1,0,2,0.9,2,2V21.1z M28.7,8.1v13
		h13v-13H28.7z"/>
	<path class="st1" d="M43.7,39.1c0,1.1-0.9,2-2,2h-13c-1.1,0-2-0.9-2-2v-13c0-1.1,0.9-2,2-2h13c1.1,0,2,0.9,2,2V39.1z M28.7,26.1v13
		h13v-13H28.7z"/>
</g>
<g id="ware" class="st0">
	<path class="st1" d="M25.8,43c-11,0-20-9-20-20s9-20,20-20s20,9,20,20S36.8,43,25.8,43z M25.8,5c-9.9,0-18,8.1-18,18s8.1,18,18,18
		s18-8.1,18-18S35.7,5,25.8,5z"/>
	<path class="st1" d="M25.8,38c-8.3,0-15-6.7-15-15s6.7-15,15-15s15,6.7,15,15S34,38,25.8,38z M25.8,10c-7.2,0-13,5.8-13,13
		s5.8,13,13,13s13-5.8,13-13S32.9,10,25.8,10z"/>
	<path class="st1" d="M34.6,20.6c-0.4,0-0.8-0.2-0.9-0.6c-1-2.6-3.3-4.6-6-5.2c-0.5-0.1-0.9-0.7-0.7-1.2c0.1-0.5,0.7-0.9,1.2-0.7
		c3.4,0.8,6.2,3.2,7.4,6.4c0.2,0.5-0.1,1.1-0.6,1.3C34.9,20.5,34.7,20.6,34.6,20.6z"/>
</g>
<g id="yard">
	<path class="st2" d="M49.7,39.1h-34v-7h34V39.1z M17.7,37.1h30v-3h-30V37.1z"/>
	<rect x="13.7" y="40.1" class="st2" width="38" height="2"/>
	<rect x="17.7" y="42.1" class="st2" width="2" height="4"/>
	<rect x="45.7" y="42.1" class="st2" width="2" height="4"/>
	<path class="st2" d="M10.5,29C4.7,29,0,22.5,0,14.5S4.7,0,10.5,0S21,6.5,21,14.5S16.3,29,10.5,29z M10.5,2C5.8,2,2,7.6,2,14.5
		S5.8,27,10.5,27S19,21.4,19,14.5S15.2,2,10.5,2z"/>
	<rect x="8.7" y="28.1" class="st2" width="2" height="11"/>
	<path class="st2" d="M14,15.4c-1.3,0-2.6-0.6-3.8-2.3c-0.5-0.7-1.1-1.1-1.8-1.2c-2.3-0.3-5.6,2-6.7,2.9l-1.3-1.5
		c0.2-0.2,4.6-3.9,8.3-3.4c1.3,0.2,2.4,0.9,3.2,2.1c1.4,2.2,2.9,1.6,5.5,0.3c0.7-0.3,1.4-0.7,2.1-0.9l0.6,1.9
		c-0.6,0.2-1.2,0.5-1.9,0.8C16.9,14.6,15.5,15.4,14,15.4z"/>
	<path class="st2" d="M14,21.4c-1.3,0-2.6-0.6-3.8-2.3c-0.4-0.7-1-1-1.7-1.2c-1.9-0.4-4.3,1.1-5.6,1.9l-1.1-1.7
		c1.9-1.3,4.7-2.7,7.1-2.3c1.2,0.2,2.2,0.9,3,2c1.4,2.2,2.9,1.6,5.5,0.3c1-0.5,2-1,2.9-1.2l0.4,2c-0.7,0.1-1.5,0.5-2.4,1
		C16.9,20.6,15.5,21.4,14,21.4z"/>
</g>
<g id="rubbish" class="st0">
	<path class="st1" d="M36.2,43.1H15.9c-1.4,0-3.2-1.5-3.2-2.9V13.1h2v27.1c0,0.2,0.8,0.9,1.2,0.9h20.3c0.2,0,0.5-0.5,0.5-0.9V13.1h2
		v27.1C38.7,41.5,37.7,43.1,36.2,43.1z"/>
	<path class="st1" d="M19.7,37c-0.6,0-1-0.4-1-1V19c0-0.6,0.4-1,1-1s1,0.4,1,1v17C20.7,36.6,20.3,37,19.7,37z"/>
	<path class="st1" d="M25.7,37c-0.6,0-1-0.4-1-1V19c0-0.6,0.4-1,1-1s1,0.4,1,1v17C26.7,36.6,26.3,37,25.7,37z"/>
	<path class="st1" d="M31.7,37c-0.6,0-1-0.4-1-1V19c0-0.6,0.4-1,1-1s1,0.4,1,1v17C32.7,36.6,32.3,37,31.7,37z"/>
	<path class="st1" d="M41.7,12.1c0,1.1-0.9,2-2,2h-28c-1.1,0-2-0.9-2-2v-3c0-1.1,0.9-2,2-2h28c1.1,0,2,0.9,2,2V12.1z M11.7,9.1v3h28
		v-3H11.7z"/>
	<path class="st1" d="M33.7,8.1h-2v-3H20.3c-0.1,0-0.5-0.1-0.5,0v3h-2V5c0-1.2,1.5-1.9,2.5-1.9h12c0.5,0,0.9,0.2,1,0.3
		c0.4,0.4,0.4,1,0.4,1.4V8.1z"/>
</g>
<g id="chandelier" class="st0">
	<path class="st3" d="M36.1,6.4"/>
	<path class="st1" d="M38.6,35.9c-3.9,0-7-3.1-7-7s3.1-7,7-7s7,3.1,7,7S42.5,35.9,38.6,35.9z M38.6,23.9c-2.8,0-5,2.2-5,5s2.2,5,5,5
		s5-2.2,5-5S41.4,23.9,38.6,23.9z"/>
	<path class="st1" d="M41.6,29.9c-0.6,0-1-0.4-1-1c0-1.1-0.9-2-2-2c-0.6,0-1-0.4-1-1s0.4-1,1-1c2.2,0,4,1.8,4,4
		C42.6,29.5,42.2,29.9,41.6,29.9z"/>
	<path class="st3" d="M33.5,13.9"/>
	<path class="st1" d="M12.9,35.9c-3.9,0-7-3.1-7-7s3.1-7,7-7s7,3.1,7,7S16.7,35.9,12.9,35.9z M12.9,23.9c-2.8,0-5,2.2-5,5s2.2,5,5,5
		s5-2.2,5-5S15.6,23.9,12.9,23.9z"/>
	<path class="st1" d="M15.9,29.9c-0.6,0-1-0.4-1-1c0-1.1-0.9-2-2-2c-0.6,0-1-0.4-1-1s0.4-1,1-1c2.2,0,4,1.8,4,4
		C16.9,29.5,16.4,29.9,15.9,29.9z"/>
	<path class="st1" d="M32,42.1h-0.2c-4.2,0-8.1-3.1-8.1-7.2V11.1h2v23.8c0,3,3,5.2,6.1,5.2H32c3,0,5.4-2,5.4-5h2
		C39.4,39.1,36.1,42.1,32,42.1z"/>
	<path class="st3" d="M32.1,11.2"/>
	<path class="st1" d="M19.1,42.3c-4.1,0-7.5-4.1-7.5-8.1h2c0,3,2.5,6.1,5.5,6.1c3,0,5.5-2.1,5.5-5.1h2
		C26.6,39.1,23.3,42.3,19.1,42.3z"/>
	<g class="st4">
		<rect x="17.7" y="3.1" class="st2" width="14" height="2"/>
		<path class="st2" d="M24.7,12.4c-3.9,0-7-3.1-7-7V3.1h14v2.3C31.7,9.3,28.6,12.4,24.7,12.4z M20.1,5.1c0,3,2.2,5,5,5s5-2,5-5H20.1
			z"/>
	</g>
</g>
<g id="oven" class="st0">
	<path class="st1" d="M43.7,42.1h-35v-39h35V42.1z M10.7,40.1h31v-35h-31V40.1z"/>
	<circle class="st1" cx="16.1" cy="11.7" r="2"/>
	<circle class="st1" cx="23.1" cy="11.7" r="2"/>
	<rect x="9.7" y="35.1" class="st1" width="32" height="2"/>
	<circle class="st1" cx="30.1" cy="11.7" r="2"/>
	<circle class="st1" cx="37.1" cy="11.7" r="2"/>
	<path class="st1" d="M38.7,30.1c0,1.1-0.9,2-2,2h-21c-1.1,0-2-0.9-2-2v-11c0-1.1,0.9-2,2-2h21c1.1,0,2,0.9,2,2V30.1z M15.7,19.1v11
		h21v-11H15.7z"/>
</g>
<g id="refrigerator" class="st0">
	<path class="st1" d="M38.7,43.1c0,1.7-1.3,3-3,3h-20c-1.7,0-3-1.3-3-3v-40c0-1.7,1.3-3,3-3h20c1.7,0,3,1.3,3,3V43.1z M36.7,3.1
		c0-0.6-0.4-1-1-1h-20c-0.6,0-1,0.4-1,1v40c0,0.6,0.4,1,1,1h20c0.6,0,1-0.4,1-1V3.1z"/>
	<rect x="14.7" y="14.1" class="st1" width="23" height="2"/>
	<rect x="14.7" y="39.1" class="st1" width="23" height="2"/>
	<path class="st1" d="M33.7,24.7c-0.6,0-1-0.4-1-1v-4c0-0.6,0.4-1,1-1s1,0.4,1,1v4C34.7,24.2,34.3,24.7,33.7,24.7z"/>
	<path class="st1" d="M33.7,10.7c-0.6,0-1-0.4-1-1v-4c0-0.6,0.4-1,1-1s1,0.4,1,1v4C34.7,10.2,34.3,10.7,33.7,10.7z"/>
</g>
<g id="window" class="st0">
	<rect x="24.7" y="10.1" class="st1" width="2" height="25"/>
	<path class="st1" d="M42.7,42.1h-34v-39h34V42.1z M10.7,40.1h30v-35h-30V40.1z"/>
	<path class="st1" d="M36.7,36.1h-22v-27h22V36.1z M16.7,34.1h18v-23h-18V34.1z"/>
	<rect x="25.7" y="18.1" class="st1" width="10" height="2"/>
</g>
</svg>
