<?xml version="1.0" encoding="utf-8"?>
<!-- Generator: Adobe Illustrator 19.2.0, SVG Export Plug-In . SVG Version: 6.00 Build 0)  -->
<svg version="1.1" id="Слой_1" xmlns="http://www.w3.org/2000/svg" xmlns:xlink="http://www.w3.org/1999/xlink" x="0px" y="0px"
	 viewBox="0 0 51.7 46.1" style="enable-background:new 0 0 51.7 46.1;" xml:space="preserve">
<style type="text/css">
	.st0{fill:#4DAF4F;}
</style>
<g>
	<path class="st0" d="M13.7,39.5h-7v-9.1c-2.8-0.5-5-2.9-5-5.9c0-3.3,2.7-6,6-6s6,2.7,6,6V39.5z M8.7,37.5h3v-13c0-2.2-1.8-4-4-4
		s-4,1.8-4,4c0,2.2,1.8,4,4,4h1V37.5z"/>
	<circle class="st0" cx="25.6" cy="14.3" r="1"/>
	<circle class="st0" cx="25.6" cy="18.3" r="1"/>
	<circle class="st0" cx="29.6" cy="16.3" r="1"/>
	<circle class="st0" cx="21.6" cy="16.3" r="1"/>
	<circle class="st0" cx="7.7" cy="24.5" r="1"/>
	<path class="st0" d="M44.7,39.5h-7v-15c0-3.3,2.7-6,6-6s6,2.7,6,6c0,3-2.2,5.4-5,5.9V39.5z M39.7,37.5h3v-9h1c2.2,0,4-1.8,4-4
		c0-2.2-1.8-4-4-4s-4,1.8-4,4V37.5z"/>
	<circle class="st0" cx="43.7" cy="24.5" r="1"/>
	<rect x="12.7" y="37.5" class="st0" width="26" height="2"/>
	<rect x="12.7" y="31.5" class="st0" width="26" height="2"/>
	<path class="st0" d="M44,19.7h-2v-5.5c0-2.8-2.4-5-5.4-5H15.4c-3,0-5.4,2.2-5.4,5v5.5H8v-5.5c0-3.9,3.3-7,7.4-7h21.3
		c4.1,0,7.4,3.1,7.4,7V19.7z"/>
	<path class="st0" d="M38.7,26.4c-4.2-0.9-8.7-1.4-13.2-1.4c-4.2,0-8.3,0.4-12.3,1.2l-0.4-2C17,23.5,21.2,23,25.5,23
		c4.7,0,9.3,0.5,13.6,1.4L38.7,26.4z"/>
</g>
</svg>
