<?xml version="1.0" encoding="utf-8"?>
<!-- Generator: Adobe Illustrator 19.2.0, SVG Export Plug-In . SVG Version: 6.00 Build 0)  -->
<svg version="1.1" id="Слой_1" xmlns="http://www.w3.org/2000/svg" xmlns:xlink="http://www.w3.org/1999/xlink" x="0px" y="0px"
	 viewBox="0 0 51.7 46.1" style="enable-background:new 0 0 51.7 46.1;" xml:space="preserve">
<style type="text/css">
	.st0{fill:#4DAF4F;}
</style>
<g>
	<path class="st0" d="M44,37.5H8c-1.7,0-3-1.3-3-3v-21c0-1.7,1.3-3,3-3h36c1.7,0,3,1.3,3,3v21C47,36.2,45.7,37.5,44,37.5z M8,12.5
		c-0.6,0-1,0.4-1,1v21c0,0.6,0.4,1,1,1h36c0.6,0,1-0.4,1-1v-21c0-0.6-0.4-1-1-1H8z"/>
	<rect x="35" y="12" class="st0" width="2" height="25.3"/>
	<circle class="st0" cx="41" cy="31" r="2"/>
	<path class="st0" d="M32,32.5c-0.6,0-1-0.4-1-1v-15c0-0.6,0.4-1,1-1s1,0.4,1,1v15C33,32.1,32.6,32.5,32,32.5z"/>
	<path class="st0" d="M27,33.5H11c-1.1,0-2-0.9-2-2v-15c0-1.1,0.9-2,2-2h16c1.1,0,2,0.9,2,2v15C29,32.6,28.1,33.5,27,33.5z M27,31.5
		v1V31.5L27,31.5L27,31.5z M11,16.5v15h16l0-15H11z"/>
	<path class="st0" d="M42.8,17.5h-3.5c-0.6,0-1-0.4-1-1c0-0.6,0.4-1,1-1h3.5c0.6,0,1,0.4,1,1C43.8,17.1,43.3,17.5,42.8,17.5z"/>
	<path class="st0" d="M42.8,20.5h-3.5c-0.6,0-1-0.4-1-1s0.4-1,1-1h3.5c0.6,0,1,0.4,1,1S43.3,20.5,42.8,20.5z"/>
</g>
</svg>
