<?xml version="1.0" encoding="utf-8"?>
<!-- Generator: Adobe Illustrator 19.2.0, SVG Export Plug-In . SVG Version: 6.00 Build 0)  -->
<svg version="1.1" id="Слой_1" xmlns="http://www.w3.org/2000/svg" xmlns:xlink="http://www.w3.org/1999/xlink" x="0px" y="0px"
	 viewBox="0 0 51.7 46.1" style="enable-background:new 0 0 51.7 46.1;" xml:space="preserve">
<style type="text/css">
	.st0{fill:#4DAF4F;}
</style>
<g id="refrigerator">
	<path class="st0" d="M38.7,43.1c0,1.7-1.3,3-3,3h-20c-1.7,0-3-1.3-3-3v-40c0-1.7,1.3-3,3-3h20c1.7,0,3,1.3,3,3V43.1z M36.7,3.1
		c0-0.6-0.4-1-1-1h-20c-0.6,0-1,0.4-1,1v40c0,0.6,0.4,1,1,1h20c0.6,0,1-0.4,1-1V3.1z"/>
	<rect x="14.7" y="14.1" class="st0" width="23" height="2"/>
	<rect x="14.7" y="39.1" class="st0" width="23" height="2"/>
	<path class="st0" d="M33.7,24.7c-0.6,0-1-0.4-1-1v-4c0-0.6,0.4-1,1-1s1,0.4,1,1v4C34.7,24.2,34.3,24.7,33.7,24.7z"/>
	<path class="st0" d="M33.7,10.7c-0.6,0-1-0.4-1-1v-4c0-0.6,0.4-1,1-1s1,0.4,1,1v4C34.7,10.2,34.3,10.7,33.7,10.7z"/>
</g>
</svg>
