<?xml version="1.0" encoding="utf-8"?>
<!-- Generator: Adobe Illustrator 19.2.0, SVG Export Plug-In . SVG Version: 6.00 Build 0)  -->
<svg version="1.1" id="Слой_1" xmlns="http://www.w3.org/2000/svg" xmlns:xlink="http://www.w3.org/1999/xlink" x="0px" y="0px"
	 viewBox="0 0 51.7 46.1" style="enable-background:new 0 0 51.7 46.1;" xml:space="preserve">
<style type="text/css">
	.st0{fill:#4DAF4F;}
</style>
<g id="oven">
	<path class="st0" d="M43.7,42.1h-35v-39h35V42.1z M10.7,40.1h31v-35h-31C10.7,5.1,10.7,40.1,10.7,40.1z"/>
	<circle class="st0" cx="16.1" cy="11.7" r="2"/>
	<circle class="st0" cx="23.1" cy="11.7" r="2"/>
	<rect x="9.7" y="35.1" class="st0" width="32" height="2"/>
	<circle class="st0" cx="30.1" cy="11.7" r="2"/>
	<circle class="st0" cx="37.1" cy="11.7" r="2"/>
	<path class="st0" d="M38.7,30.1c0,1.1-0.9,2-2,2h-21c-1.1,0-2-0.9-2-2v-11c0-1.1,0.9-2,2-2h21c1.1,0,2,0.9,2,2V30.1z M15.7,19.1v11
		h21v-11H15.7z"/>
</g>
</svg>
