<?xml version="1.0" encoding="utf-8"?>
<!-- Generator: Adobe Illustrator 19.2.0, SVG Export Plug-In . SVG Version: 6.00 Build 0)  -->
<svg version="1.1" id="Слой_1" xmlns="http://www.w3.org/2000/svg" xmlns:xlink="http://www.w3.org/1999/xlink" x="0px" y="0px"
	 viewBox="0 0 51.7 46.1" style="enable-background:new 0 0 51.7 46.1;" xml:space="preserve">
<style type="text/css">
	.st0{fill:#4DAF4F;}
</style>
<g>
	<path class="st0" d="M33.5,42.8L16.8,30.3l12.4-10.9c1.1-0.6,2.5-0.5,3.5,0.2l6.5,4.8c1.2,0.9,1.6,2.3,1.2,3.7l-0.1,0.1l-0.4,0.9
		L33.5,42.8z M20,30.2l12.8,9.5l5.7-12.2c0.1-0.5,0-1.1-0.5-1.4l-6.5-4.8c-0.4-0.3-0.9-0.3-1.3-0.1l-0.8,0.7L20,30.2z"/>
	<path class="st0" d="M35.4,23.8c-0.2,0-0.4-0.1-0.6-0.2c-0.4-0.3-0.5-1-0.2-1.4L47.7,4.6c0.3-0.4,1-0.5,1.4-0.2
		c0.4,0.3,0.5,1,0.2,1.4L36.2,23.4C36,23.7,35.7,23.8,35.4,23.8z"/>
	<rect x="31.6" y="20.4" transform="matrix(0.5959 -0.8031 0.8031 0.5959 -8.4702 37.1109)" class="st0" width="2" height="13.2"/>
	<path class="st0" d="M23,34.7c-0.2,0-0.4-0.1-0.6-0.2c-0.4-0.3-0.5-1-0.2-1.4l4.1-5.5c0.3-0.4,1-0.5,1.4-0.2c0.4,0.3,0.5,1,0.2,1.4
		l-4.1,5.5C23.6,34.6,23.3,34.7,23,34.7z"/>
	<path class="st0" d="M26.7,37.4c-0.2,0-0.4-0.1-0.6-0.2c-0.4-0.3-0.5-1-0.2-1.4l2.7-3.7c0.3-0.4,1-0.5,1.4-0.2
		c0.4,0.3,0.5,1,0.2,1.4L27.5,37C27.3,37.3,27,37.4,26.7,37.4z"/>
	<path class="st0" d="M7.7,35.5c-2.8,0-5-2.3-5-5c0-2.8,2.3-5,5-5s5,2.3,5,5C12.7,33.2,10.4,35.5,7.7,35.5z M7.7,27.4
		c-1.7,0-3,1.4-3,3s1.4,3,3,3c1.7,0,3-1.4,3-3S9.3,27.4,7.7,27.4z"/>
	<path class="st0" d="M18,22.3c-1.8,0-3.3-1.5-3.3-3.3s1.5-3.3,3.3-3.3s3.3,1.5,3.3,3.3S19.8,22.3,18,22.3z M18,17.7
		c-0.7,0-1.3,0.6-1.3,1.3s0.6,1.3,1.3,1.3s1.3-0.6,1.3-1.3S18.7,17.7,18,17.7z"/>
	<path class="st0" d="M5.4,19.4c-2.1,0-3.9-1.7-3.9-3.9s1.7-3.9,3.9-3.9s3.9,1.7,3.9,3.9S7.5,19.4,5.4,19.4z M5.4,13.7
		c-1,0-1.9,0.8-1.9,1.9s0.8,1.9,1.9,1.9s1.9-0.8,1.9-1.9S6.4,13.7,5.4,13.7z"/>
</g>
</svg>
