<?xml version="1.0" encoding="utf-8"?>
<!-- Generator: Adobe Illustrator 19.2.0, SVG Export Plug-In . SVG Version: 6.00 Build 0)  -->
<svg version="1.1" id="Слой_1" xmlns="http://www.w3.org/2000/svg" xmlns:xlink="http://www.w3.org/1999/xlink" x="0px" y="0px"
	 viewBox="0 0 51.7 46.1" style="enable-background:new 0 0 51.7 46.1;" xml:space="preserve">
<style type="text/css">
	.st0{fill:#4DAF4F;}
</style>
<g id="ware">
	<path class="st0" d="M25.8,43c-11,0-20-9-20-20s9-20,20-20s20,9,20,20S36.8,43,25.8,43z M25.8,5c-9.9,0-18,8.1-18,18s8.1,18,18,18
		s18-8.1,18-18S35.7,5,25.8,5z"/>
	<path class="st0" d="M25.8,38c-8.3,0-15-6.7-15-15s6.7-15,15-15s15,6.7,15,15S34,38,25.8,38z M25.8,10c-7.2,0-13,5.8-13,13
		s5.8,13,13,13s13-5.8,13-13S32.9,10,25.8,10z"/>
	<path class="st0" d="M34.6,20.6c-0.4,0-0.8-0.2-0.9-0.6c-1-2.6-3.3-4.6-6-5.2c-0.5-0.1-0.9-0.7-0.7-1.2c0.1-0.5,0.7-0.9,1.2-0.7
		c3.4,0.8,6.2,3.2,7.4,6.4c0.2,0.5-0.1,1.1-0.6,1.3C34.9,20.5,34.7,20.6,34.6,20.6z"/>
</g>
</svg>
