<?xml version="1.0" encoding="utf-8"?>
<!-- Generator: Adobe Illustrator 19.2.0, SVG Export Plug-In . SVG Version: 6.00 Build 0)  -->
<svg version="1.1" id="Слой_1" xmlns="http://www.w3.org/2000/svg" xmlns:xlink="http://www.w3.org/1999/xlink" x="0px" y="0px"
	 viewBox="0 0 51.7 46.1" style="enable-background:new 0 0 51.7 46.1;" xml:space="preserve">
<style type="text/css">
	.st0{fill:none;stroke:#4DAF4F;stroke-width:2;stroke-miterlimit:10;}
</style>
<g>
	<path class="st0" d="M18,36.8v0.7c0,1.1,0.9,2,2,2h16c1.1,0,2-0.9,2-2v-20c0-1.1-0.9-2-2-2H20c-1.1,0-2,0.9-2,2v4"/>
	<path class="st0" d="M28.6,15.1c0.9-4.6,4.9-8.1,9.8-8.1c5.5,0,10,4.5,10,10s-4.5,10-10,10"/>
	<line class="st0" x1="18" y1="21.5" x2="38" y2="21.5"/>
	<path class="st0" d="M17.8,36.5"/>
	<g>
		<path class="st0" d="M18,37v-1c0-0.5-0.3-1.3-0.7-1.7l-8.6-8c-0.4-0.4-1.1-0.5-1.6-0.2l-1.9,1.1c-0.5,0.3-1.2,0.2-1.6-0.2
			l-0.5-0.5c-0.4-0.4-0.4-1,0-1.4l6.4-6.4c0.4-0.4,1-0.4,1.5,0l0.3,0.3c0.4,0.4,0.5,1.1,0.3,1.6l-0.9,1.7c-0.3,0.5-0.1,1.2,0.3,1.5
			l6.2,4.7c0.4,0.3,0.8,0.2,0.8-0.4v-8"/>
	</g>
</g>
</svg>
