<?xml version="1.0" encoding="utf-8"?>
<!-- Generator: Adobe Illustrator 19.2.0, SVG Export Plug-In . SVG Version: 6.00 Build 0)  -->
<svg version="1.1" id="Слой_1" xmlns="http://www.w3.org/2000/svg" xmlns:xlink="http://www.w3.org/1999/xlink" x="0px" y="0px"
	 viewBox="0 0 51.7 46.1" style="enable-background:new 0 0 51.7 46.1;" xml:space="preserve">
<style type="text/css">
	.st0{fill:#4DAF4F;}
</style>
<g id="rubbish">
	<path class="st0" d="M36.2,43.1H15.9c-1.4,0-3.2-1.5-3.2-2.9V13.1h2v27.1c0,0.2,0.8,0.9,1.2,0.9h20.3c0.2,0,0.5-0.5,0.5-0.9V13.1h2
		v27.1C38.7,41.5,37.7,43.1,36.2,43.1z"/>
	<path class="st0" d="M19.7,37c-0.6,0-1-0.4-1-1V19c0-0.6,0.4-1,1-1s1,0.4,1,1v17C20.7,36.6,20.3,37,19.7,37z"/>
	<path class="st0" d="M25.7,37c-0.6,0-1-0.4-1-1V19c0-0.6,0.4-1,1-1s1,0.4,1,1v17C26.7,36.6,26.3,37,25.7,37z"/>
	<path class="st0" d="M31.7,37c-0.6,0-1-0.4-1-1V19c0-0.6,0.4-1,1-1c0.6,0,1,0.4,1,1v17C32.7,36.6,32.3,37,31.7,37z"/>
	<path class="st0" d="M41.7,12.1c0,1.1-0.9,2-2,2h-28c-1.1,0-2-0.9-2-2v-3c0-1.1,0.9-2,2-2h28c1.1,0,2,0.9,2,2V12.1z M11.7,9.1v3h28
		v-3H11.7z"/>
	<path class="st0" d="M33.7,8.1h-2v-3H20.3c-0.1,0-0.5-0.1-0.5,0v3h-2V5c0-1.2,1.5-1.9,2.5-1.9h12c0.5,0,0.9,0.2,1,0.3
		c0.4,0.4,0.4,1,0.4,1.4V8.1z"/>
</g>
</svg>
