<?xml version="1.0" encoding="utf-8"?>
<!-- Generator: Adobe Illustrator 19.2.0, SVG Export Plug-In . SVG Version: 6.00 Build 0)  -->
<svg version="1.1" id="Слой_1" xmlns="http://www.w3.org/2000/svg" xmlns:xlink="http://www.w3.org/1999/xlink" x="0px" y="0px"
	 viewBox="0 0 51.7 46.1" style="enable-background:new 0 0 51.7 46.1;" xml:space="preserve">
<style type="text/css">
	.st0{fill:#4CAF50;}
</style>
<g>
	<path class="st0" d="M35.9,45.3c-0.4,0-0.8-0.1-1.2-0.3l-12.3-6.4c-1.3-0.7-2.2-2.4-2.1-3.9l2.5-20.6c0.2-1.3,0.9-1.7,1.3-1.8
		c0.3-0.1,1.2-0.2,2.1,0.8l3.2,3.7c0.6,0.6,1.8,1.3,2.6,1.3h1.3c1.2,0,3.1,0.2,4.2,0.7l11.2,4.5c1.5,0.6,2.3,2.3,1.7,3.9L48,33.6
		c-0.5,1.4-2.1,2.5-3.6,2.5h-5.5c-0.5,0-0.9,0.4-0.9,1v6c0,0.9-0.4,1.6-1,2C36.7,45.3,36.3,45.3,35.9,45.3z M23.3,36.9l12.3,6.4
		c0.2,0.1,0.3,0.1,0.3,0.1c0,0,0-0.1,0-0.3v-6c0-1.7,1.3-3,2.9-3h5.5c0.7,0,1.5-0.6,1.7-1.2l2.3-6.4c0.2-0.5-0.1-1.1-0.6-1.3
		l-11.2-4.5c-0.9-0.3-2.4-0.6-3.5-0.6h-1.3c-1.5,0-3.2-1-4.1-1.9l-3.1-3.6L22.3,35C22.2,35.6,22.7,36.5,23.3,36.9L23.3,36.9z"/>
	<circle class="st0" cx="35.5" cy="24.5" r="1.8"/>
	<g>
		<g>
			<path class="st0" d="M4.2,25.1c-0.6,0-1.1-0.1-1.6-0.4c-0.9-0.5-1.6-1.3-1.8-2.4c-0.2-1-0.1-2.1,0.4-3.1c1.1-2,3.5-2.9,5.3-1.9
				c0.9,0.5,1.6,1.3,1.8,2.4c0.2,1,0.1,2.1-0.4,3.1s-1.3,1.7-2.3,2.1C5.1,25,4.7,25.1,4.2,25.1z M4.9,18.9c-0.7,0-1.5,0.5-1.9,1.3
				c-0.3,0.5-0.4,1.1-0.2,1.7c0.1,0.5,0.4,0.9,0.8,1.1c0.4,0.2,0.9,0.2,1.4,0.1c0.5-0.2,1-0.6,1.3-1.1s0.4-1.1,0.2-1.7
				C6.3,19.6,6,19.2,5.6,19C5.3,18.9,5.1,18.9,4.9,18.9z"/>
			<rect x="1.1" y="8.4" transform="matrix(0.4697 -0.8828 0.8828 0.4697 -2.5953 14.4257)" class="st0" width="19.2" height="2"/>
		</g>
		<g>
			<path class="st0" d="M15.8,25.1c-0.5,0-0.9-0.1-1.4-0.3c-1-0.4-1.8-1.1-2.3-2.1s-0.7-2.1-0.4-3.1c0.2-1.1,0.9-1.9,1.8-2.4
				c1.9-1,4.2-0.1,5.3,1.9c0.5,1,0.7,2.1,0.4,3.1c-0.3,1.1-0.9,1.9-1.8,2.4C17,25,16.4,25.1,15.8,25.1z M15.2,18.9
				c-0.2,0-0.5,0.1-0.7,0.2c-0.4,0.2-0.7,0.6-0.8,1.1c-0.1,0.5,0,1.1,0.2,1.7s0.7,0.9,1.3,1.1c0.5,0.2,1,0.2,1.4-0.1
				c0.4-0.2,0.7-0.6,0.8-1.1c0.1-0.5,0-1.1-0.2-1.7C16.7,19.3,15.9,18.9,15.2,18.9z"/>
			<rect x="8.4" y="-0.2" transform="matrix(0.8828 -0.4697 0.4697 0.8828 -3.3064 5.4923)" class="st0" width="2" height="19.2"/>
		</g>
	</g>
</g>
</svg>
