<?xml version="1.0" encoding="utf-8"?>
<!-- Generator: Adobe Illustrator 19.2.0, SVG Export Plug-In . SVG Version: 6.00 Build 0)  -->
<svg version="1.1" id="Слой_1" xmlns="http://www.w3.org/2000/svg" xmlns:xlink="http://www.w3.org/1999/xlink" x="0px" y="0px"
	 viewBox="0 0 51.7 46.1" style="enable-background:new 0 0 51.7 46.1;" xml:space="preserve">
<style type="text/css">
	.st0{fill:#4DAF4F;}
</style>
<g id="seams">
	<path class="st0" d="M25.7,21.1c0,1.1-0.9,2-2,2h-13c-1.1,0-2-0.9-2-2v-13c0-1.1,0.9-2,2-2h13c1.1,0,2,0.9,2,2V21.1z M10.7,8.1v13
		h13v-13H10.7z"/>
	<path class="st0" d="M25.7,39.1c0,1.1-0.9,2-2,2h-13c-1.1,0-2-0.9-2-2v-13c0-1.1,0.9-2,2-2h13c1.1,0,2,0.9,2,2V39.1z M10.7,26.1v13
		h13v-13C23.7,26.1,10.7,26.1,10.7,26.1z"/>
	<path class="st0" d="M43.7,21.1c0,1.1-0.9,2-2,2h-13c-1.1,0-2-0.9-2-2v-13c0-1.1,0.9-2,2-2h13c1.1,0,2,0.9,2,2V21.1z M28.7,8.1v13
		h13v-13H28.7z"/>
	<path class="st0" d="M43.7,39.1c0,1.1-0.9,2-2,2h-13c-1.1,0-2-0.9-2-2v-13c0-1.1,0.9-2,2-2h13c1.1,0,2,0.9,2,2V39.1z M28.7,26.1v13
		h13v-13C41.7,26.1,28.7,26.1,28.7,26.1z"/>
</g>
</svg>
