<?xml version="1.0" encoding="utf-8"?>
<!-- Generator: Adobe Illustrator 19.2.0, SVG Export Plug-In . SVG Version: 6.00 Build 0)  -->
<svg version="1.1" id="Слой_1" xmlns="http://www.w3.org/2000/svg" xmlns:xlink="http://www.w3.org/1999/xlink" x="0px" y="0px"
	 viewBox="0 0 51.7 46.1" style="enable-background:new 0 0 51.7 46.1;" xml:space="preserve">
<style type="text/css">
	.st0{fill:#4DAF4F;}
</style>
<g>
	<path class="st0" d="M36.7,18H30v-1c0-4.8-4.5-5-5-5l-1,0l0-7h7c4.7,0,8.3,2,8.5,2.1l0.7,0.4L36.7,18z M31.9,16h3.3l2.5-7.5
		C36.6,8,34,7,31,7h-5v3.1C28.3,10.4,31.5,12,31.9,16z"/>
	<path class="st0" d="M38.8,44.5H24.7l-0.3-0.3c-3.3-3.6-2.7-8.4-2.1-11c0.6-2.5,2-3.8,3.5-5.2c0.5-0.4,0.9-0.9,1.4-1.3
		c0.9-0.9,1.8-2.5,2.2-3.7c0.1-0.2,0.3-2,0.5-3.6l0.1-0.9h6.4l0.3,0.4c7.9,11,2.5,24.4,2.3,25L38.8,44.5z M25.6,42.5h11.8
		c0.9-2.7,3.9-13.3-2-22h-3.6c-0.2,1.4-0.4,2.7-0.5,3c-0.4,1.4-1.6,3.3-2.7,4.5c-0.5,0.5-1,1-1.5,1.4c-1.4,1.3-2.5,2.3-3,4.2
		C23.8,35.7,23.3,39.6,25.6,42.5z"/>
	<circle class="st0" cx="11.4" cy="13.8" r="1"/>
	<circle class="st0" cx="14.2" cy="11.3" r="1"/>
	<circle class="st0" cx="17.3" cy="9.1" r="1"/>
	<circle class="st0" cx="14.2" cy="6.8" r="1"/>
	<circle class="st0" cx="11.4" cy="4.6" r="1"/>
	<circle class="st0" cx="11.4" cy="9.1" r="1"/>
	<path class="st0" d="M22,11.9c-0.6,0-1-0.4-1-1v-5c0-0.6,0.4-1,1-1s1,0.4,1,1v5C23,11.4,22.6,11.9,22,11.9z"/>
	<path class="st0" d="M31.5,39.6c-0.2,0-0.4-0.1-0.6-0.2c-0.5-0.3-0.6-0.9-0.3-1.4c3.9-5.8,2.2-18.3,2.2-18.4
		c-0.1-0.5,0.3-1.1,0.9-1.1c0.6-0.1,1.1,0.3,1.1,0.9c0.1,0.5,1.8,13.4-2.5,19.8C32.1,39.5,31.8,39.6,31.5,39.6z"/>
	<rect x="22.5" y="32.5" class="st0" width="17" height="2"/>
	<path class="st0" d="M27.8,18c-0.1,0-0.2,0-0.3,0c-0.5-0.2-0.8-0.7-0.7-1.3l1.4-4.3c0.2-0.5,0.7-0.8,1.3-0.7
		c0.5,0.2,0.8,0.7,0.7,1.3l-1.4,4.3C28.6,17.7,28.3,18,27.8,18z"/>
</g>
</svg>
