<?xml version="1.0" encoding="utf-8"?>
<!-- Generator: Adobe Illustrator 19.2.0, SVG Export Plug-In . SVG Version: 6.00 Build 0)  -->
<svg version="1.1" id="Слой_1" xmlns="http://www.w3.org/2000/svg" xmlns:xlink="http://www.w3.org/1999/xlink" x="0px" y="0px"
	 viewBox="0 0 51.7 46.1" style="enable-background:new 0 0 51.7 46.1;" xml:space="preserve">
<style type="text/css">
	.st0{fill:none;stroke:#4DAF4F;stroke-width:2;stroke-miterlimit:10;}
	.st1{fill:#4DAF4F;}
</style>
<g>
	<path class="st0" d="M33,10.4c0,4.2-7.5,10.2-7.5,10.2S18,14.6,18,10.4"/>
	<line class="st0" x1="22" y1="22.1" x2="22" y2="42.9"/>
	<path class="st0" d="M33,22.5v-12c0-1.1-0.9-2-2-2H20c-1.1,0-2,0.9-2,2v12c0,0,2.8-1.3,7.5-1.3S33,22.5,33,22.5z"/>
	<path class="st0" d="M32.8,8.5H37c1.1,0,2,0.9,2,2.1v29.9c0,1.1-0.9,2.1-2,2.1H14c-1.1,0-2-0.9-2-2.1V10.6c0-1.1,0.9-2.1,2-2.1h3.7
		"/>
	<circle class="st1" cx="26" cy="27" r="1.5"/>
	<circle class="st1" cx="26" cy="32" r="1.5"/>
	<circle class="st1" cx="26" cy="37" r="1.5"/>
	<path class="st0" d="M18,11.6V7.4c0-1.7,1.4-3,3-3h9c1.6,0,3,1.3,3,3v3.8"/>
</g>
</svg>
