<?xml version="1.0" encoding="utf-8"?>
<!-- Generator: Adobe Illustrator 19.2.0, SVG Export Plug-In . SVG Version: 6.00 Build 0)  -->
<svg version="1.1" id="Слой_1" xmlns="http://www.w3.org/2000/svg" xmlns:xlink="http://www.w3.org/1999/xlink" x="0px" y="0px"
	 viewBox="0 0 51.7 46.1" style="enable-background:new 0 0 51.7 46.1;" xml:space="preserve">
<style type="text/css">
	.st0{fill:none;stroke:#4CAF50;stroke-width:2;stroke-miterlimit:10;}
	.st1{fill:none;stroke:#4CAF50;stroke-width:2;stroke-linecap:round;stroke-miterlimit:10;}
</style>
<ellipse transform="matrix(0.5395 -0.842 0.842 0.5395 -21.2119 36.3959)" class="st0" cx="22.7" cy="37.6" rx="6.5" ry="6.5"/>
<g>
	<path class="st0" d="M24.9,39c-0.4,0.7-1.5,1.2-2.3,1.2s-1.8-0.7-2.2-1.4c-0.4-0.7-0.3-1.9,0.1-2.6c0.4-0.7,1.5-1.2,2.3-1.2
		s1.8,0.7,2.2,1.4C25.4,37.1,25.3,38.3,24.9,39z"/>
</g>
<line class="st0" x1="23.2" y1="31.4" x2="33.8" y2="14.8"/>
<line class="st0" x1="38.9" y1="18" x2="28.2" y2="34.6"/>
<g>
	<path class="st0" d="M43.4,11.2c0.5-0.7,1.3-2,1.8-2.9s1.4-0.7,1.8,0.3c0,0,1.4,3.4-0.8,6.8c-1.9,3-5.6,4-8.2,2.4l-3.9-2.5
		c-2.6-1.7-3.2-5.4-1.3-8.4c2.2-3.4,5.9-3.5,5.9-3.5c1.1,0,1.5,0.7,0.9,1.6l-1.5,2.4c-0.6,0.9-0.3,2.2,0.6,2.8l2.1,1.3
		C41.8,12.1,42.9,11.9,43.4,11.2z"/>
</g>
<line class="st1" x1="9" y1="31.1" x2="9" y2="40.1"/>
<path class="st0" d="M9.9,45c1.4,0,2.5-1.1,2.5-2.5v-13l-0.4-0.4c-0.3-0.4-0.5-0.9-0.5-1.4c0-0.6,0.2-1.2,0.6-1.6
	c0,0,0.8-1.9-1.9-1.9h-1l-0.4,0h-1c-2.7,0-1.9,1.9-1.9,1.9c0.4,0.4,0.6,1,0.6,1.6c0,0.5-0.2,1-0.5,1.4l-0.4,0.4v13
	c0,1.4,1.1,2.5,2.5,2.5L9.9,45z"/>
<polyline class="st0" points="9,25.1 9,11.2 6.3,9.7 7.5,2.1 8.8,2.1 10.1,2.1 11.4,9.7 8.9,11.4 "/>
</svg>
