<?xml version="1.0" encoding="utf-8"?>
<!-- Generator: Adobe Illustrator 19.2.0, SVG Export Plug-In . SVG Version: 6.00 Build 0)  -->
<svg version="1.1" id="Слой_1" xmlns="http://www.w3.org/2000/svg" xmlns:xlink="http://www.w3.org/1999/xlink" x="0px" y="0px"
	 viewBox="0 0 51.7 46.1" style="enable-background:new 0 0 51.7 46.1;" xml:space="preserve">
<style type="text/css">
	.st0{fill:#4DAF4F;}
</style>
<g id="yard">
	<path class="st0" d="M49.7,39.1h-34v-7h34V39.1z M17.7,37.1h30v-3h-30V37.1z"/>
	<rect x="13.7" y="40.1" class="st0" width="38" height="2"/>
	<rect x="17.7" y="42.1" class="st0" width="2" height="4"/>
	<rect x="45.7" y="42.1" class="st0" width="2" height="4"/>
	<path class="st0" d="M10.5,29C4.7,29,0,22.5,0,14.5S4.7,0,10.5,0S21,6.5,21,14.5S16.3,29,10.5,29z M10.5,2C5.8,2,2,7.6,2,14.5
		S5.8,27,10.5,27S19,21.4,19,14.5S15.2,2,10.5,2z"/>
	<rect x="8.7" y="28.1" class="st0" width="2" height="11"/>
	<path class="st0" d="M14,15.4c-1.3,0-2.6-0.6-3.8-2.3c-0.5-0.7-1.1-1.1-1.8-1.2c-2.3-0.3-5.6,2-6.7,2.9l-1.3-1.5
		C0.6,13.1,5,9.4,8.7,9.9c1.3,0.2,2.4,0.9,3.2,2.1c1.4,2.2,2.9,1.6,5.5,0.3c0.7-0.3,1.4-0.7,2.1-0.9l0.6,1.9
		c-0.6,0.2-1.2,0.5-1.9,0.8C16.9,14.6,15.5,15.4,14,15.4z"/>
	<path class="st0" d="M14,21.4c-1.3,0-2.6-0.6-3.8-2.3c-0.4-0.7-1-1-1.7-1.2c-1.9-0.4-4.3,1.1-5.6,1.9l-1.1-1.7
		c1.9-1.3,4.7-2.7,7.1-2.3c1.2,0.2,2.2,0.9,3,2c1.4,2.2,2.9,1.6,5.5,0.3c1-0.5,2-1,2.9-1.2l0.4,2c-0.7,0.1-1.5,0.5-2.4,1
		C16.9,20.6,15.5,21.4,14,21.4z"/>
</g>
</svg>
