<svg id="Слой_1" xmlns="http://www.w3.org/2000/svg" viewBox="0 0 137.5 125.1"><style>.st0{display:none}.st1{display:inline}.st2,.st3,.st4{fill:none;stroke-width:3;stroke-miterlimit:10}.st2{stroke-linecap:round;stroke-dasharray:1.9941,11.9648;stroke:#273238}.st3,.st4{stroke:#4daf4f}.st4{stroke-linecap:round}.st5{display:inline;stroke:#273238}.st5,.st6,.st7,.st8{fill:none;stroke-width:3;stroke-miterlimit:10}.st6{stroke:#273238}.st7,.st8{stroke-linecap:round}.st7{display:inline;stroke:#4daf4f}.st8{stroke:#273238;stroke-dasharray:2,12}.st9{fill:#fff}.st10,.st11,.st12{stroke-width:3;stroke-miterlimit:10}.st10{stroke:#273238;stroke-linecap:round;stroke-dasharray:2.0471,12.2827;fill:none}.st11,.st12{fill:#fff}.st11{stroke-linecap:round;stroke:#273238}.st12{stroke:#4daf4f}</style><g class="st0"><g class="st1"><circle class="st2" cx="52.5" cy="64.5" r="40"/></g><g class="st1"><path class="st3" d="M44.5 47.5v34"/><path class="st4" d="M39 74h25"/><path class="st3" d="M43 48h12.6c5.5 0 10 4.5 10 10s-4.5 10-10 10H44"/><path class="st4" d="M39 68h12"/></g><circle class="st5" cx="52.5" cy="64.5" r="50"/><path class="st5" d="M44.2 14.8c6.2-2.8 13.1-4.3 20.3-4.3 27.6 0 50 22.4 50 50 0 24.1-17.1 44.3-39.8 49"/></g><g class="st0"><g class="st1"><path class="st6" d="M76.4 8.5c2.7-2.7 8.1-4.7 11.9-4.5l34.5 2.3c3.8.3 7.2 3.6 7.4 7.4l2.3 34.5c.3 3.8-1.8 9.2-4.5 11.9l-60.1 60.1c-2.7 2.7-7.2 2.7-9.9 0L16.3 78.5c-2.7-2.7-2.7-7.2 0-9.9L76.4 8.5z"/></g><ellipse transform="rotate(-45.001 103.552 32.31)" class="st7" cx="103.6" cy="32.3" rx="7.8" ry="7.8"/><g class="st1"><path class="st8" d="M80.1 17.6c1.6-1.6 4.6-2.8 6.8-2.8l30.4.4c2.2 0 4 1.8 4 4l.4 30.4c0 2.2-1.2 5.3-2.8 6.8l-53.1 53.1c-1.6 1.6-4.1 1.6-5.7 0L26.9 76.3c-1.6-1.6-1.6-4.1 0-5.7l53.2-53z"/></g><g class="st1"><path class="st6" d="M57.3 118.8l-2.6 2.6c-2 2-5.9 1.5-8.7-1.2L4.3 78.5c-2.7-2.7-2.7-7.2 0-9.9L64.4 8.5c2.7-2.7 7.9-4.8 11.5-4.5l8.3.5"/></g></g><g class="st0"><g class="st1"><path class="st9" d="M110.9 102.3c.7.8.4 1.6-.7 1.7l-11.8 1c-1.1.1-2.2 1-2.4 2.1l-2.6 11.5c-.2 1.1-1 1.3-1.7.4l-29-33.4c-.7-.8-.6-2.1.2-2.8l16.1-14c.8-.7 2.1-.6 2.8.2l29.1 33.3z"/><path class="st6" d="M110.9 102.3c.7.8.4 1.6-.7 1.7l-11.8 1c-1.1.1-2.2 1-2.4 2.1l-2.6 11.5c-.2 1.1-1 1.3-1.7.4l-29-33.4c-.7-.8-.6-2.1.2-2.8l16.1-14c.8-.7 2.1-.6 2.8.2l29.1 33.3z"/></g><g class="st1"><path class="st9" d="M2.6 102.3c-.7.8-.4 1.6.7 1.7l11.8.9c1.1.1 2.2 1 2.4 2.1l2.6 11.5c.2 1.1 1 1.3 1.7.4l29-33.4c.7-.8.6-2.1-.2-2.8L34.5 68.8c-.8-.7-2.1-.6-2.8.2L2.6 102.3z"/><path class="st6" d="M2.6 102.3c-.7.8-.4 1.6.7 1.7l11.8.9c1.1.1 2.2 1 2.4 2.1l2.6 11.5c.2 1.1 1 1.3 1.7.4l29-33.4c.7-.8.6-2.1-.2-2.8L34.5 68.8c-.8-.7-2.1-.6-2.8.2L2.6 102.3z"/></g><g class="st1"><path class="st9" d="M94.9 82.7c-2.5 1-5.2 4.1-5.8 6.8l-1.7 7.1c-.6 2.7-3.4 4.5-6.1 4l-7.2-1.3c-2.7-.5-6.5.7-8.5 2.6l-5.3 5.1c-2 1.9-5.2 1.9-7.3 0l-5.3-5c-2-1.9-5.9-3-8.6-2.4l-7.2 1.4c-2.7.5-5.4-1.2-6.1-3.9L24 89.9c-.7-2.7-3.3-5.7-5.9-6.7l-6.8-2.7c-2.6-1-3.9-4-3-6.6l2.4-6.9c.9-2.6.3-6.6-1.3-8.8L5 52.4c-1.6-2.2-1.2-5.5 1-7.2l5.8-4.6c2.2-1.7 3.8-5.4 3.6-8.1l-.4-7.3c-.1-2.7 2-5.2 4.7-5.5L27 19c2.7-.3 6.1-2.5 7.5-4.9l3.6-6.4c1.4-2.4 4.5-3.3 6.9-2.1L51.6 9c2.5 1.2 6.5 1.2 8.9-.1L67 5.5c2.4-1.3 5.6-.4 7 2l3.7 6.3c1.4 2.4 4.8 4.5 7.5 4.8l7.3.6c2.7.2 4.9 2.7 4.8 5.4l-.2 7.4c-.1 2.7 1.6 6.4 3.7 8.1l5.8 4.5c2.2 1.7 2.7 4.9 1.1 7.1l-4.2 6c-1.6 2.2-2.1 6.2-1.2 8.8l2.4 6.9c.9 2.6-.4 5.6-3 6.6l-6.8 2.7z"/><path class="st6" d="M94.9 82.7c-2.5 1-5.2 4.1-5.8 6.8l-1.7 7.1c-.6 2.7-3.4 4.5-6.1 4l-7.2-1.3c-2.7-.5-6.5.7-8.5 2.6l-5.3 5.1c-2 1.9-5.2 1.9-7.3 0l-5.3-5c-2-1.9-5.9-3-8.6-2.4l-7.2 1.4c-2.7.5-5.4-1.2-6.1-3.9L24 89.9c-.7-2.7-3.3-5.7-5.9-6.7l-6.8-2.7c-2.6-1-3.9-4-3-6.6l2.4-6.9c.9-2.6.3-6.6-1.3-8.8L5 52.4c-1.6-2.2-1.2-5.5 1-7.2l5.8-4.6c2.2-1.7 3.8-5.4 3.6-8.1l-.4-7.3c-.1-2.7 2-5.2 4.7-5.5L27 19c2.7-.3 6.1-2.5 7.5-4.9l3.6-6.4c1.4-2.4 4.5-3.3 6.9-2.1L51.6 9c2.5 1.2 6.5 1.2 8.9-.1L67 5.5c2.4-1.3 5.6-.4 7 2l3.7 6.3c1.4 2.4 4.8 4.5 7.5 4.8l7.3.6c2.7.2 4.9 2.7 4.8 5.4l-.2 7.4c-.1 2.7 1.6 6.4 3.7 8.1l5.8 4.5c2.2 1.7 2.7 4.9 1.1 7.1l-4.2 6c-1.6 2.2-2.1 6.2-1.2 8.8l2.4 6.9c.9 2.6-.4 5.6-3 6.6l-6.8 2.7z"/></g><g class="st1"><circle class="st10" cx="57.2" cy="55" r="36.5"/></g><g class="st1"><path class="st4" d="M43.2 56.5l6.7 9.7c1.3 1.8 3.3 1.8 4.5 0L71.2 41"/></g></g><path class="st6" d="M120.5 109c0 4.4-3.6 8-8 8H9.5c-4.4 0-8-3.6-8-8V26c0-4.4 3.6-8 8-8h103c4.4 0 8 3.6 8 8v83zM3 38h119"/><path class="st8" d="M25 60h80"/><path class="st11" d="M28.5 21.5c0 1.9-1.6 3.5-3.5 3.5s-3.5-1.6-3.5-3.5v-10C21.5 9.6 23.1 8 25 8s3.5 1.6 3.5 3.5v10zm72 0c0 1.9-1.6 3.5-3.5 3.5s-3.5-1.6-3.5-3.5v-10C93.5 9.6 95.1 8 97 8s3.5 1.6 3.5 3.5v10z"/><path class="st8" d="M25 78h80M25 96h80"/><circle class="st12" cx="113.5" cy="66" r="22.5"/><path class="st4" d="M113.5 52.5V66l7.5 5.8"/></svg>