<svg id="Слой_1" xmlns="http://www.w3.org/2000/svg" viewBox="0 0 73 73"><style>.st0{fill:#fff}.st1{fill:#273238}.st2{fill:#4daf4f}</style><circle class="st0" cx="36.5" cy="36.5" r="35"/><path class="st1" d="M36.5 73C16.4 73 0 56.6 0 36.5S16.4 0 36.5 0 73 16.4 73 36.5 56.6 73 36.5 73zm0-70C18 3 3 18 3 36.5S18 70 36.5 70 70 55 70 36.5 55 3 36.5 3z"/><path class="st2" d="M38.6 50.5H27.4l8.4-14-8.4-14h11l8.4 13.7-8.2 14.3zm-5.9-3h4.2l6.4-11.3-6.6-10.7h-4l6.6 11-6.6 11z"/><path class="st1" d="M58.9 23c-.5 0-1-.2-1.2-.7-.6-.9-1.3-1.8-2-2.6-.5-.6-.5-1.6.1-2.1s1.6-.5 2.1.1c.8.9 1.6 1.9 2.3 2.9.5.7.3 1.6-.4 2.1-.3.2-.6.3-.9.3zm4.6 15.5c-.9 0-1.5-.5-1.5-1.4v-.7c0-1-.1-1.9-.2-2.8-.1-.8.5-1.5 1.3-1.6.8-.1 1.6.5 1.7 1.3.1 1.1.2 2.1.2 3.2v.7c0 .8-.7 1.3-1.5 1.3zm-5.3 15.6c-.3 0-.6-.1-.9-.3-.7-.5-.8-1.4-.3-2.1.7-.9 1.3-1.8 1.8-2.8.4-.7 1.3-1 2-.6s1 1.3.6 2c-.6 1.1-1.3 2.1-2 3.1-.3.5-.8.7-1.2.7zM36.5 65C20.8 65 8 52.2 8 36.5c0-6.7 2.4-13.3 6.7-18.4.5-.6 1.5-.7 2.1-.2.6.5.7 1.5.2 2.1-3.9 4.6-6 10.4-6 16.5C11 50.6 22.4 62 36.5 62c4.6 0 9.1-1.2 13-3.5.7-.4 1.6-.2 2.1.5.4.7.2 1.6-.5 2.1-4.5 2.5-9.5 3.9-14.6 3.9zM23 14.6c-.5 0-1-.3-1.3-.7-.4-.7-.2-1.6.5-2C26.5 9.3 31.5 8 36.5 8c4.2 0 8.3.9 12.1 2.7.7.4 1.1 1.2.7 2-.4.7-1.2 1.1-2 .7-3.4-1.6-7-2.4-10.8-2.4-4.5 0-8.9 1.2-12.8 3.4-.2.2-.5.2-.7.2z"/></svg>