<svg id="Слой_1" xmlns="http://www.w3.org/2000/svg" viewBox="0 0 44.8 46"><style>.st0{fill:#dca027}.st1{fill:#fdc113}.st2{fill:#ef4523}.st3{fill:#dc3326}.st4{fill:#fef7e2}</style><path class="st0" d="M13.9 11.1L8.1 7.3 8 7.1C7.9 7 7.3 6 7.6 4.8 7.7 4.3 8 3.6 9 3c1.9-1.1 3.5 0 4.1 1l.1.2.7 6.9zM9.6 5.9l1.9 1.2-.2-2.3c-.3-.2-.7-.4-1.3-.1-.4.3-.5.5-.5.6 0 .2 0 .5.1.6z"/><path class="st1" d="M12.7 7.6c1.4-.9 3.3-.4 4.1 1l.6 1s-.1 1.6-2.5 3.1-4.4.8-4.4.8l-.5-.7c-.9-1.4-.4-3.3 1-4.1l1.7-1.1z"/><path class="st2" d="M18.1 43.5C8.8 41.1 3 31.7 5.3 22.3S17.1 7.2 26.5 9.5s15.1 11.8 12.8 21.2C37 40 27.5 45.8 18.1 43.5z"/><path class="st3" d="M27.1 13.7l-7.9-1.5 3.4 7.3-3 6.4 7.4-.3 5.8 5.6 1.4-7.4 4.9-2.3c-.3-.9-.6-1.8-1-2.6l-4-2.5-.8-3.5c-.9-.8-1.9-1.4-3-2l-3.2 2.8zm-5 20.4l-2 5.2-6.5 2.4c1.4.8 2.8 1.4 4.4 1.8 5.1 1.3 10.2.1 14.2-2.7l2.3-3.1-7.8.3-4.6-3.9zM6 32.7l5.1 4.3-.1-6.9 3.6-3.2-4.6-2.3-2.2-6.2-2.2 3.3h-.1c-.1.2-.1.4-.2.6-.9 3.6-.6 7.2.7 10.4z"/><path class="st4" d="M32.4 22.5l4.4-2.1-4.5-2.8-1-4.9-3.6 3.1-5-1 2.1 4.7-2 4.3 5-.2 3.7 3.6zM21.7 40.9l-4.1 1.5 2.6 1.4c2.8.4 5.6 0 8.1-.9l2.2-3.1-4.5.2-3-2.6-1.3 3.5zM6.6 30.5l2.4 2v-3.3l2.1-1.8L8.4 26l-1.1-3.2-1.6 2.4H5c-.1 1.9 0 3.8.5 5.5l1.1-.2z"/></svg>