<svg id="Слой_1" xmlns="http://www.w3.org/2000/svg" viewBox="0 0 44.8 46"><style>.st0{fill:#398f43}.st1{fill:#ffcb2a}.st2{fill:#1f5f30}.st3{fill:#71cddd}</style><path class="st0" d="M22.2 19L6.4 40.3s5.3 4.2 15.9 4.2 15.9-4.3 15.9-4.3L22.2 19z"/><path class="st0" d="M22.2 14.8l-12.7 16s4.3 3.2 12.7 3.1c8.5 0 12.7-3.2 12.7-3.2L22.2 14.8z"/><path class="st0" d="M22.2 9.5l-9.5 12.8s3.2 2.1 9.6 2.1 9.5-2.2 9.5-2.2L22.2 9.5z"/><path class="st1" d="M22.2 2L24 5.3l3.5.5L25 8.3l.5 3.8-3.3-1.7-3.3 1.8.5-3.8-2.5-2.5 3.5-.6z"/><path class="st2" d="M33.5 33.9l-1.3-1.7c-2.1.8-5.4 1.7-9.8 1.8-4.5 0-7.7-.8-9.9-1.7l-1.3 1.8c2.3 1 6.1 2.1 11.2 2s8.7-1.3 11.1-2.2zm-11.2-9.6c-3 0-5.3-.4-6.9-.9L14 25.1c1.8.6 4.5 1.3 8.3 1.3s6.5-.7 8.3-1.4l-1.4-1.8c-1.7.6-3.9 1.1-6.9 1.1zm-.1-13.9l-1.1.6-3.1 4.1 1.9-1.1 2.3-1.2 2.3 1.2 1.9 1-3-4z"/><ellipse transform="translate(-.068 .08)" class="st3" cx="20.6" cy="17.4" rx="1.6" ry="1.6"/><ellipse transform="translate(-.078 .099)" class="st3" cx="25.4" cy="20.1" rx="1.1" ry="1.1"/><ellipse transform="translate(-.111 .066)" class="st3" cx="17" cy="28.6" rx="1.1" ry="1.1"/><ellipse transform="translate(-.123 .083)" class="st3" cx="21.2" cy="31.7" rx="1.1" ry="1.1"/><ellipse transform="translate(-.16 .087)" class="st3" cx="22.3" cy="41.3" rx="1.1" ry="1.1"/><ellipse transform="translate(-.154 .122)" class="st3" cx="31.3" cy="39.7" rx="1.6" ry="1.6"/><ellipse transform="translate(-.115 .103)" class="st3" cx="26.5" cy="29.6" rx="1.6" ry="1.6"/><ellipse transform="translate(-.152 .06)" class="st3" cx="15.4" cy="39.2" rx="1.6" ry="1.6"/></svg>