<svg id="Слой_1" xmlns="http://www.w3.org/2000/svg" viewBox="0 0 44.8 46"><style>.st0{fill:#fcb74f}.st1{fill:#79491d}.st2{fill:#ef4523}.st3{fill:#f58a82}.st4{fill:#d0d8dc}.st5{fill:#e57473}.st6{fill:#90a4ae}.st7{fill:#f8981d}</style><path class="st0" d="M7.8 19.8c-.2-13 25.8-15 26-.3l.1 8.6c.1 7.2-5.7 13-12.8 13.1-7.2.1-13.1-5.7-13.2-12.8l-.1-8.6z"/><path class="st1" d="M29 24.3c0 .9-.7 1.7-1.7 1.7-.9 0-1.7-.7-1.7-1.7 0-.9.7-1.7 1.7-1.7.9 0 1.7.8 1.7 1.7m-12 .1c0 .9-.7 1.7-1.7 1.7-.9 0-1.7-.7-1.7-1.7 0-.9.7-1.7 1.7-1.7.9 0 1.7.8 1.7 1.7"/><path class="st2" d="M35.7 13.1c2.9 1.6 4 3 4 3s-5.1-14-15.1-13.9C5.6 2.4 5.8 18.4 5.8 18.4l28.9-.3c0-1-.6-5.6 1-5z"/><ellipse transform="rotate(-.678 31.528 30.897) scale(.99997)" class="st3" cx="31.5" cy="30.9" rx="3.9" ry="3.9"/><ellipse transform="rotate(-.678 11.028 31.296) scale(.99997)" class="st3" cx="11" cy="31.3" rx="3.9" ry="3.9"/><path class="st4" d="M37.9 27.1c0-1.5-1.3-2.8-2.8-2.9.5-.4.7-1.1.7-1.7 0-1.2-.9-2.1-2-2.4V20h-2l.1 7.7c0 1-.2 2.5-1 3.3-1.5 1.6-2.7 1.3-3.6.7-3.3-2.2-6.5-1.5-6.5-1.5s-3.1-.6-6.4 1.7c-.9.6-2 1-3.6-.6-.7-.8-1-2.3-1-3.3l-.1-7.7h-2c-1.1.2-2 1.2-2 2.4 0 .7.3 1.3.8 1.7-1.5.1-2.7 1.4-2.7 2.9 0 1.3 1 2.5 2.2 2.8-.6.9-1.1 1.8-1.1 2.8 0 1.9 1.5 3.4 3.4 3.4-.2.5-.3 1-.3 1.5 0 1.9 1.6 3.5 3.5 3.5 1 0 1.9-.5 2.5-1.2 0 .2-.1.4-.1.6 0 1.9 1.6 3.5 3.5 3.5 1.8 0 3.2-1.4 3.4-3.1.2 1.7 1.7 3 3.5 3 1.9 0 3.5-1.6 3.5-3.5 0-.2 0-.4-.1-.6.6.7 1.6 1.1 2.6 1.1 1.9 0 3.5-1.6 3.5-3.5 0-.5-.1-1.1-.4-1.5 1.9-.1 3.3-1.6 3.3-3.5 0-1-.5-2-1.2-2.6 1.5-.4 2.4-1.5 2.4-2.9z"/><path class="st4" d="M36.8 17.6c0-.7-.4-1.2-1-1.4V16c.6-.2 1-.8 1-1.4 0-.8-.7-1.5-1.5-1.5-.7 0-1.2.4-1.4 1h-.2c-.2-.6-.8-1-1.4-1-.7 0-1.2.4-1.4 1h-.2c-.2-.6-.8-1-1.4-1-.7 0-1.2.4-1.4 1h-.2c-.2-.6-.8-1-1.4-1-.7 0-1.2.4-1.4 1h-.2c-.2-.6-.8-1-1.4-1-.7 0-1.2.4-1.4 1h-.2c-.2-.6-.8-1-1.4-1-.7 0-1.2.4-1.4 1h-.2c-.2-.6-.8-1-1.4-1-.7 0-1.2.4-1.4 1h-.2c-.2-.6-.8-1-1.4-1-.7 0-1.2.4-1.4 1h-.2c-.2-.6-.8-1-1.4-1-.7 0-1.2.4-1.4 1h-.2c-.2-.6-.8-1-1.4-1s-1.2.4-1.4 1h-.2c-.2-.6-.8-1-1.4-1-.8 0-1.5.7-1.5 1.5 0 .7.4 1.2 1 1.4v.2c-.6.2-1 .8-1 1.4 0 .7.4 1.2 1 1.4v.2c-.6.2-1 .8-1 1.4 0 .8.7 1.5 1.5 1.5.7 0 1.2-.4 1.4-1h.2c.2.6.8 1 1.4 1 .7 0 1.2-.4 1.4-1h.2c.2.6.8 1 1.4 1 .7 0 1.2-.4 1.4-1h.2c.2.6.8 1 1.4 1s1.2-.4 1.4-1h.2c.2.6.8 1 1.4 1 .7 0 1.2-.4 1.4-1h.2c.2.6.8 1 1.4 1 .7 0 1.2-.4 1.4-1h.2c.2.6.8 1 1.4 1s1.2-.4 1.4-1h.2c.2.6.8 1 1.4 1 .7 0 1.2-.4 1.4-1h.2c.2.6.8 1 1.4 1 .7 0 1.2-.4 1.4-1h.2c.2.6.8 1 1.4 1 .6 0 1.2-.4 1.4-1h.2c.2.6.8 1 1.4 1 .8 0 1.5-.7 1.5-1.5 0-.7-.4-1.2-1-1.4V19c.6-.2 1-.8 1-1.4z"/><path class="st4" d="M41.1 15.1c.6-.4.8-1.1.6-1.7-.2-.7-.9-1-1.5-1 .2-.6-.1-1.3-.7-1.7-.6-.4-1.4-.2-1.8.2-.3-.6-.9-1-1.6-.8-.7.1-1.2.7-1.2 1.3-.6-.3-1.3-.1-1.8.4-.4.5-.5 1.3-.1 1.8-.6.2-1.1.8-1.1 1.5s.4 1.2 1 1.4c-.3.5-.3 1.2.1 1.7s1.2.7 1.8.4c0 .7.5 1.2 1.2 1.4h.3c.6 0 1.1-.3 1.3-.8.5.5 1.2.6 1.8.2.6-.3.9-1 .7-1.7.7.1 1.3-.3 1.6-1 .2-.5-.1-1.2-.6-1.6z"/><path class="st5" d="M17 35.3s1 2 4 2 4-2 4-2h-8z"/><path class="st6" d="M9.8 21.4c-.3.6-.8 1-1.5 1s-1.2-.4-1.4-1h-.2c-.1.4-.4.7-.8.9 0 .2-.1.4-.1.6 0 .5.2 1 .5 1.4.2-.1.4-.1.5-.2.5.2 1 .3 1.5.3s1-.1 1.5-.4v-2.6zm25.4 2.7c.4-.4.6-1 .6-1.6 0-.2 0-.3-.1-.5-.1 0-.3.1-.4.1-.7 0-1.2-.4-1.4-1h-.2c-.2.6-.7 1-1.4 1-.2 0-.3 0-.5-.1v2c.2 0 .3.1.5.1.5 0 1-.1 1.5-.4.5.3.9.4 1.4.4z"/><path class="st6" d="M36.8 20.6c0-.2-.1-.4-.1-.6-.2.1-.3.1-.5.1h-.3c-.7-.1-1.2-.7-1.2-1.4-.2.1-.4.1-.6.1-.4 0-.9-.2-1.2-.6-.4-.5-.4-1.2-.1-1.7-.6-.2-1-.7-1-1.4s.5-1.3 1.1-1.5c-.1-.2-.2-.3-.2-.5-.1 0-.3-.1-.4-.1-.7 0-1.2.4-1.4 1h-.2c-.1-.3-.3-.5-.5-.6-.3.5-.4 1.1-.4 1.7 0 .8.3 1.6.8 2.2 0 .8.3 1.6.8 2.2s1.3 1.1 2.1 1.2l.3.3h.2c.6 1.4 1.7.9 1.8.9.5 0 1-.6 1-1.3z"/><ellipse transform="rotate(-.678 20.93 30.3) scale(.99997)" class="st7" cx="20.9" cy="30.3" rx="2" ry="2"/><ellipse transform="rotate(-.678 22.924 30.194) scale(.99997)" class="st7" cx="22.9" cy="30.2" rx="1.5" ry="1.5"/><ellipse transform="rotate(-.678 18.93 30.296) scale(.99997)" class="st7" cx="18.9" cy="30.3" rx="1.5" ry="1.5"/></svg>