<svg id="Слой_1" xmlns="http://www.w3.org/2000/svg" viewBox="0 0 44.8 46"><style>.st0{fill:none;stroke:#fff;stroke-width:2;stroke-linecap:square;stroke-miterlimit:10}.st1{fill:#fff}.st2{fill:none;stroke:#fff;stroke-width:2;stroke-linecap:square;stroke-miterlimit:10}</style><path class="st0" d="M23.3 34.3V12.2m9.9 16.6L13.4 17.7m0 11.1l19.8-11.1m-15.4-4l12 20m-1-20l-12 20m-5.5-10.5h24"/><circle class="st1" cx="17.8" cy="13.7" r="1.5"/><circle class="st1" cx="35.8" cy="23.2" r="1.5"/><circle class="st1" cx="10.8" cy="23.2" r="1.5"/><circle class="st1" cx="29.8" cy="33.7" r="1.5"/><circle class="st1" cx="28.8" cy="13.7" r="1.5"/><circle class="st1" cx="16.8" cy="33.7" r="1.5"/><path class="st2" d="M6.3 32.7c2.1-1.2 4.2-2.4 6.3-3.5M34.5 17c1.9-1.1 3.9-2.2 5.8-3.3"/><path class="st2" d="M35 11.2l-1.8 6.5 6.7 1.7M11.6 35.3l1.8-6.5-6.7-1.7m16.6-15.9v-7m4.9 3.2l-4.9 4.8-4.9-4.8m4.9 34.8v-7m-4.9 3.9l4.9-4.8 4.9 4.8m12.1-6.4c-2.2-1.2-4.3-2.4-6.5-3.7"/><path class="st2" d="M35 35.3l-1.8-6.5 6.7-1.7m-27.2-9.8c-2.1-1.2-4.2-2.4-6.3-3.5"/><path class="st2" d="M11.6 11.2l1.8 6.5-6.7 1.7"/></svg>