<svg id="Слой_1" xmlns="http://www.w3.org/2000/svg" viewBox="0 0 51.7 46.1"><style>.st0{fill:none;stroke:#4daf4f;stroke-width:2;stroke-miterlimit:10}</style><path class="st0" d="M18 36.8v.7c0 1.1.9 2 2 2h16c1.1 0 2-.9 2-2v-20c0-1.1-.9-2-2-2H20c-1.1 0-2 .9-2 2v4"/><path class="st0" d="M28.6 15.1c.9-4.6 4.9-8.1 9.8-8.1 5.5 0 10 4.5 10 10s-4.5 10-10 10M18 21.5h20M18 37v-1c0-.5-.3-1.3-.7-1.7l-8.6-8c-.4-.4-1.1-.5-1.6-.2l-1.9 1.1c-.5.3-1.2.2-1.6-.2l-.5-.5c-.4-.4-.4-1 0-1.4l6.4-6.4c.4-.4 1-.4 1.5 0l.3.3c.4.4.5 1.1.3 1.6l-.9 1.7c-.3.5-.1 1.2.3 1.5l6.2 4.7c.4.3.8.2.8-.4v-8"/></svg>