<svg id="Слой_1" xmlns="http://www.w3.org/2000/svg" viewBox="0 0 51.7 46.1"><style>.st0{display:none}.st1{display:inline}.st1,.st2{fill:#4daf4f}.st3{fill:none;stroke:#4daf4f;stroke-width:2;stroke-miterlimit:10}.st3,.st4{display:inline}</style><g id="seams" class="st0"><path class="st1" d="M25.7 21.1c0 1.1-.9 2-2 2h-13c-1.1 0-2-.9-2-2v-13c0-1.1.9-2 2-2h13c1.1 0 2 .9 2 2v13zm-15-13v13h13v-13h-13zm15 31c0 1.1-.9 2-2 2h-13c-1.1 0-2-.9-2-2v-13c0-1.1.9-2 2-2h13c1.1 0 2 .9 2 2v13zm-15-13v13h13v-13h-13zm33-5c0 1.1-.9 2-2 2h-13c-1.1 0-2-.9-2-2v-13c0-1.1.9-2 2-2h13c1.1 0 2 .9 2 2v13zm-15-13v13h13v-13h-13zm15 31c0 1.1-.9 2-2 2h-13c-1.1 0-2-.9-2-2v-13c0-1.1.9-2 2-2h13c1.1 0 2 .9 2 2v13zm-15-13v13h13v-13h-13z"/></g><g id="ware"><path class="st2" d="M25.8 43c-11 0-20-9-20-20s9-20 20-20 20 9 20 20-9 20-20 20zm0-38c-9.9 0-18 8.1-18 18s8.1 18 18 18 18-8.1 18-18-8.1-18-18-18z"/><path class="st2" d="M25.8 38c-8.3 0-15-6.7-15-15s6.7-15 15-15 15 6.7 15 15-6.8 15-15 15zm0-28c-7.2 0-13 5.8-13 13s5.8 13 13 13 13-5.8 13-13-5.9-13-13-13z"/><path class="st2" d="M34.6 20.6c-.4 0-.8-.2-.9-.6-1-2.6-3.3-4.6-6-5.2-.5-.1-.9-.7-.7-1.2.1-.5.7-.9 1.2-.7 3.4.8 6.2 3.2 7.4 6.4.2.5-.1 1.1-.6 1.3-.1-.1-.3 0-.4 0z"/></g><g id="yard" class="st0"><path class="st1" d="M49.7 39.1h-34v-7h34v7zm-32-2h30v-3h-30v3zm-4 3h38v2h-38zm4 2h2v4h-2zm28 0h2v4h-2zM10.5 29C4.7 29 0 22.5 0 14.5S4.7 0 10.5 0 21 6.5 21 14.5 16.3 29 10.5 29zm0-27C5.8 2 2 7.6 2 14.5S5.8 27 10.5 27 19 21.4 19 14.5 15.2 2 10.5 2z"/><path class="st1" d="M8.7 28.1h2v11h-2zM14 15.4c-1.3 0-2.6-.6-3.8-2.3-.5-.7-1.1-1.1-1.8-1.2-2.3-.3-5.6 2-6.7 2.9L.4 13.3c.2-.2 4.6-3.9 8.3-3.4 1.3.2 2.4.9 3.2 2.1 1.4 2.2 2.9 1.6 5.5.3.7-.3 1.4-.7 2.1-.9l.6 1.9c-.6.2-1.2.5-1.9.8-1.3.5-2.7 1.3-4.2 1.3zm0 6c-1.3 0-2.6-.6-3.8-2.3-.4-.7-1-1-1.7-1.2-1.9-.4-4.3 1.1-5.6 1.9l-1.1-1.7c1.9-1.3 4.7-2.7 7.1-2.3 1.2.2 2.2.9 3 2 1.4 2.2 2.9 1.6 5.5.3 1-.5 2-1 2.9-1.2l.4 2c-.7.1-1.5.5-2.4 1-1.4.7-2.8 1.5-4.3 1.5z"/></g><g id="rubbish" class="st0"><path class="st1" d="M36.2 43.1H15.9c-1.4 0-3.2-1.5-3.2-2.9V13.1h2v27.1c0 .2.8.9 1.2.9h20.3c.2 0 .5-.5.5-.9V13.1h2v27.1c0 1.3-1 2.9-2.5 2.9z"/><path class="st1" d="M19.7 37c-.6 0-1-.4-1-1V19c0-.6.4-1 1-1s1 .4 1 1v17c0 .6-.4 1-1 1zm6 0c-.6 0-1-.4-1-1V19c0-.6.4-1 1-1s1 .4 1 1v17c0 .6-.4 1-1 1zm6 0c-.6 0-1-.4-1-1V19c0-.6.4-1 1-1s1 .4 1 1v17c0 .6-.4 1-1 1zm10-24.9c0 1.1-.9 2-2 2h-28c-1.1 0-2-.9-2-2v-3c0-1.1.9-2 2-2h28c1.1 0 2 .9 2 2v3zm-30-3v3h28v-3h-28z"/><path class="st1" d="M33.7 8.1h-2v-3H20.3c-.1 0-.5-.1-.5 0v3h-2V5c0-1.2 1.5-1.9 2.5-1.9h12c.5 0 .9.2 1 .3.4.4.4 1 .4 1.4v3.3z"/></g><g id="chandelier" class="st0"><path class="st1" d="M38.6 35.9c-3.9 0-7-3.1-7-7s3.1-7 7-7 7 3.1 7 7-3.1 7-7 7zm0-12c-2.8 0-5 2.2-5 5s2.2 5 5 5 5-2.2 5-5-2.2-5-5-5z"/><path class="st1" d="M41.6 29.9c-.6 0-1-.4-1-1 0-1.1-.9-2-2-2-.6 0-1-.4-1-1s.4-1 1-1c2.2 0 4 1.8 4 4 0 .6-.4 1-1 1zm-28.7 6c-3.9 0-7-3.1-7-7s3.1-7 7-7 7 3.1 7 7-3.2 7-7 7zm0-12c-2.8 0-5 2.2-5 5s2.2 5 5 5 5-2.2 5-5-2.3-5-5-5z"/><path class="st1" d="M15.9 29.9c-.6 0-1-.4-1-1 0-1.1-.9-2-2-2-.6 0-1-.4-1-1s.4-1 1-1c2.2 0 4 1.8 4 4 0 .6-.5 1-1 1zM32 42.1h-.2c-4.2 0-8.1-3.1-8.1-7.2V11.1h2v23.8c0 3 3 5.2 6.1 5.2h.2c3 0 5.4-2 5.4-5h2c0 4-3.3 7-7.4 7z"/><path class="st1" d="M19.1 42.3c-4.1 0-7.5-4.1-7.5-8.1h2c0 3 2.5 6.1 5.5 6.1s5.5-2.1 5.5-5.1h2c0 3.9-3.3 7.1-7.5 7.1z"/><g class="st4"><path class="st2" d="M17.7 3.1h14v2h-14z"/><path class="st2" d="M24.7 12.4c-3.9 0-7-3.1-7-7V3.1h14v2.3c0 3.9-3.1 7-7 7zm-4.6-7.3c0 3 2.2 5 5 5s5-2 5-5h-10z"/></g></g><g id="oven" class="st0"><path class="st1" d="M43.7 42.1h-35v-39h35v39zm-33-2h31v-35h-31v35z"/><circle class="st1" cx="16.1" cy="11.7" r="2"/><circle class="st1" cx="23.1" cy="11.7" r="2"/><path class="st1" d="M9.7 35.1h32v2h-32z"/><circle class="st1" cx="30.1" cy="11.7" r="2"/><circle class="st1" cx="37.1" cy="11.7" r="2"/><path class="st1" d="M38.7 30.1c0 1.1-.9 2-2 2h-21c-1.1 0-2-.9-2-2v-11c0-1.1.9-2 2-2h21c1.1 0 2 .9 2 2v11zm-23-11v11h21v-11h-21z"/></g><g id="refrigerator" class="st0"><path class="st1" d="M38.7 43.1c0 1.7-1.3 3-3 3h-20c-1.7 0-3-1.3-3-3v-40c0-1.7 1.3-3 3-3h20c1.7 0 3 1.3 3 3v40zm-2-40c0-.6-.4-1-1-1h-20c-.6 0-1 .4-1 1v40c0 .6.4 1 1 1h20c.6 0 1-.4 1-1v-40z"/><path class="st1" d="M14.7 14.1h23v2h-23zm0 25h23v2h-23zm19-14.4c-.6 0-1-.4-1-1v-4c0-.6.4-1 1-1s1 .4 1 1v4c0 .5-.4 1-1 1zm0-14c-.6 0-1-.4-1-1v-4c0-.6.4-1 1-1s1 .4 1 1v4c0 .5-.4 1-1 1z"/></g><g id="window" class="st0"><path class="st1" d="M24.7 10.1h2v25h-2z"/><path class="st1" d="M42.7 42.1h-34v-39h34v39zm-32-2h30v-35h-30v35z"/><path class="st1" d="M36.7 36.1h-22v-27h22v27zm-20-2h18v-23h-18v23z"/><path class="st1" d="M25.7 18.1h10v2h-10z"/></g></svg>