<svg id="Слой_1" xmlns="http://www.w3.org/2000/svg" viewBox="0 0 51.7 46.1"><style>.st0,.st1{fill:none;stroke:#4caf50;stroke-width:2;stroke-miterlimit:10}.st1{stroke-linecap:round}</style><ellipse transform="rotate(-57.35 22.667 37.59)" class="st0" cx="22.7" cy="37.6" rx="6.5" ry="6.5"/><path class="st0" d="M24.9 39c-.4.7-1.5 1.2-2.3 1.2s-1.8-.7-2.2-1.4c-.4-.7-.3-1.9.1-2.6.4-.7 1.5-1.2 2.3-1.2s1.8.7 2.2 1.4c.4.7.3 1.9-.1 2.6zm-1.7-7.6l10.6-16.6m5.1 3.2L28.2 34.6m15.2-23.4c.5-.7 1.3-2 1.8-2.9s1.4-.7 1.8.3c0 0 1.4 3.4-.8 6.8-1.9 3-5.6 4-8.2 2.4l-3.9-2.5c-2.6-1.7-3.2-5.4-1.3-8.4 2.2-3.4 5.9-3.5 5.9-3.5 1.1 0 1.5.7.9 1.6l-1.5 2.4c-.6.9-.3 2.2.6 2.8l2.1 1.3c1 .6 2.1.4 2.6-.3z"/><path class="st1" d="M9 31.1v9"/><path class="st0" d="M9.9 45c1.4 0 2.5-1.1 2.5-2.5v-13l-.4-.4c-.3-.4-.5-.9-.5-1.4 0-.6.2-1.2.6-1.6 0 0 .8-1.9-1.9-1.9H7.8c-2.7 0-1.9 1.9-1.9 1.9.4.4.6 1 .6 1.6 0 .5-.2 1-.5 1.4l-.4.4v13c0 1.4 1.1 2.5 2.5 2.5h1.8z"/><path class="st0" d="M9 25.1V11.2L6.3 9.7l1.2-7.6h2.6l1.3 7.6-2.5 1.7"/></svg>