<svg id="Слой_1" xmlns="http://www.w3.org/2000/svg" viewBox="0 0 51.7 46.1"><style>.st0{fill:#4daf4f}</style><path class="st0" d="M25.7 21.1c0 1.1-.9 2-2 2h-13c-1.1 0-2-.9-2-2v-13c0-1.1.9-2 2-2h13c1.1 0 2 .9 2 2v13zm-15-13v13h13v-13h-13zm15 31c0 1.1-.9 2-2 2h-13c-1.1 0-2-.9-2-2v-13c0-1.1.9-2 2-2h13c1.1 0 2 .9 2 2v13zm-15-13v13h13v-13h-13zm33-5c0 1.1-.9 2-2 2h-13c-1.1 0-2-.9-2-2v-13c0-1.1.9-2 2-2h13c1.1 0 2 .9 2 2v13zm-15-13v13h13v-13h-13zm15 31c0 1.1-.9 2-2 2h-13c-1.1 0-2-.9-2-2v-13c0-1.1.9-2 2-2h13c1.1 0 2 .9 2 2v13zm-15-13v13h13v-13h-13z" id="seams"/></svg>