<svg id="Слой_1" xmlns="http://www.w3.org/2000/svg" viewBox="0 0 51.7 46.1"><style>.st0{fill:#4daf4f}</style><g id="yard"><path class="st0" d="M49.7 39.1h-34v-7h34v7zm-32-2h30v-3h-30v3zm-4 3h38v2h-38zm4 2h2v4h-2zm28 0h2v4h-2zM10.5 29C4.7 29 0 22.5 0 14.5S4.7 0 10.5 0 21 6.5 21 14.5 16.3 29 10.5 29zm0-27C5.8 2 2 7.6 2 14.5S5.8 27 10.5 27 19 21.4 19 14.5 15.2 2 10.5 2z"/><path class="st0" d="M8.7 28.1h2v11h-2zM14 15.4c-1.3 0-2.6-.6-3.8-2.3-.5-.7-1.1-1.1-1.8-1.2-2.3-.3-5.6 2-6.7 2.9L.4 13.3c.2-.2 4.6-3.9 8.3-3.4 1.3.2 2.4.9 3.2 2.1 1.4 2.2 2.9 1.6 5.5.3.7-.3 1.4-.7 2.1-.9l.6 1.9c-.6.2-1.2.5-1.9.8-1.3.5-2.7 1.3-4.2 1.3zm0 6c-1.3 0-2.6-.6-3.8-2.3-.4-.7-1-1-1.7-1.2-1.9-.4-4.3 1.1-5.6 1.9l-1.1-1.7c1.9-1.3 4.7-2.7 7.1-2.3 1.2.2 2.2.9 3 2 1.4 2.2 2.9 1.6 5.5.3 1-.5 2-1 2.9-1.2l.4 2c-.7.1-1.5.5-2.4 1-1.4.7-2.8 1.5-4.3 1.5z"/></g></svg>