<svg id="Слой_1" xmlns="http://www.w3.org/2000/svg" viewBox="0 0 51.7 46.1"><style>.st0{fill:#4caf50}</style><path class="st0" d="M35.9 45.3c-.4 0-.8-.1-1.2-.3l-12.3-6.4c-1.3-.7-2.2-2.4-2.1-3.9l2.5-20.6c.2-1.3.9-1.7 1.3-1.8.3-.1 1.2-.2 2.1.8l3.2 3.7c.6.6 1.8 1.3 2.6 1.3h1.3c1.2 0 3.1.2 4.2.7l11.2 4.5c1.5.6 2.3 2.3 1.7 3.9L48 33.6c-.5 1.4-2.1 2.5-3.6 2.5h-5.5c-.5 0-.9.4-.9 1v6c0 .9-.4 1.6-1 2-.3.2-.7.2-1.1.2zm-12.6-8.4l12.3 6.4c.2.1.3.1.3.1v-6.3c0-1.7 1.3-3 2.9-3h5.5c.7 0 1.5-.6 1.7-1.2l2.3-6.4c.2-.5-.1-1.1-.6-1.3l-11.2-4.5c-.9-.3-2.4-.6-3.5-.6h-1.3c-1.5 0-3.2-1-4.1-1.9l-3.1-3.6L22.3 35c-.1.6.4 1.5 1 1.9z"/><circle class="st0" cx="35.5" cy="24.5" r="1.8"/><path class="st0" d="M4.2 25.1c-.6 0-1.1-.1-1.6-.4-.9-.5-1.6-1.3-1.8-2.4-.2-1-.1-2.1.4-3.1 1.1-2 3.5-2.9 5.3-1.9.9.5 1.6 1.3 1.8 2.4.2 1 .1 2.1-.4 3.1s-1.3 1.7-2.3 2.1c-.5.1-.9.2-1.4.2zm.7-6.2c-.7 0-1.5.5-1.9 1.3-.3.5-.4 1.1-.2 1.7.1.5.4.9.8 1.1.4.2.9.2 1.4.1.5-.2 1-.6 1.3-1.1s.4-1.1.2-1.7c-.2-.7-.5-1.1-.9-1.3-.3-.1-.5-.1-.7-.1z"/><path transform="rotate(-61.985 10.71 9.373)" class="st0" d="M1.1 8.4h19.2v2H1.1z"/><path class="st0" d="M15.8 25.1c-.5 0-.9-.1-1.4-.3-1-.4-1.8-1.1-2.3-2.1s-.7-2.1-.4-3.1c.2-1.1.9-1.9 1.8-2.4 1.9-1 4.2-.1 5.3 1.9.5 1 .7 2.1.4 3.1-.3 1.1-.9 1.9-1.8 2.4-.4.4-1 .5-1.6.5zm-.6-6.2c-.2 0-.5.1-.7.2-.4.2-.7.6-.8 1.1-.1.5 0 1.1.2 1.7s.7.9 1.3 1.1c.5.2 1 .2 1.4-.1.4-.2.7-.6.8-1.1.1-.5 0-1.1-.2-1.7-.5-.8-1.3-1.2-2-1.2z"/><path transform="rotate(-28.018 9.354 9.373)" class="st0" d="M8.4-.2h2V19h-2z"/></svg>