<svg id="Слой_1" xmlns="http://www.w3.org/2000/svg" viewBox="0 0 51.7 46.1"><style>.st0{fill:none;stroke:#4daf4f;stroke-width:2;stroke-miterlimit:10}.st1{fill:#4daf4f}</style><g id="chandelier"><path class="st1" d="M38.6 35.9c-3.9 0-7-3.1-7-7s3.1-7 7-7 7 3.1 7 7-3.1 7-7 7zm0-12c-2.8 0-5 2.2-5 5s2.2 5 5 5 5-2.2 5-5-2.2-5-5-5z"/><path class="st1" d="M41.6 29.9c-.6 0-1-.4-1-1 0-1.1-.9-2-2-2-.6 0-1-.4-1-1s.4-1 1-1c2.2 0 4 1.8 4 4 0 .6-.4 1-1 1zm-29.7 6c-3.9 0-7-3.1-7-7s3.1-7 7-7 7 3.1 7 7-3.2 7-7 7zm0-12c-2.8 0-5 2.2-5 5s2.2 5 5 5 5-2.2 5-5-2.3-5-5-5z"/><path class="st1" d="M14.9 29.9c-.6 0-1-.4-1-1 0-1.1-.9-2-2-2-.6 0-1-.4-1-1s.4-1 1-1c2.2 0 4 1.8 4 4 0 .6-.5 1-1 1zM32 42.1h-.2c-4.2 0-8.1-3.1-8.1-7.2V11.1h2v23.8c0 3 3 5.2 6.1 5.2h.2c3 0 5.4-2 5.4-5h2c0 4-3.3 7-7.4 7z"/><path class="st1" d="M18.1 42.3c-4.1 0-7.5-4.1-7.5-8.1h2c0 3 2.5 6.1 5.5 6.1s5.5-2.1 5.5-5.1h2c0 3.9-3.3 7.1-7.5 7.1zm-.4-39.2h14v2h-14z"/><path class="st1" d="M24.7 12.4c-3.9 0-7-3.1-7-7V3.1h14v2.3c0 3.9-3.1 7-7 7zm-4.6-7.3c0 3 2.2 5 5 5s5-2 5-5h-10z"/></g></svg>