<svg id="Слой_1" xmlns="http://www.w3.org/2000/svg" viewBox="0 0 51.7 46.1"><style>.st0{fill:#4daf4f}</style><path class="st0" d="M44 37.5H8c-1.7 0-3-1.3-3-3v-21c0-1.7 1.3-3 3-3h36c1.7 0 3 1.3 3 3v21c0 1.7-1.3 3-3 3zm-36-25c-.6 0-1 .4-1 1v21c0 .6.4 1 1 1h36c.6 0 1-.4 1-1v-21c0-.6-.4-1-1-1H8z"/><path class="st0" d="M35 12h2v25.3h-2z"/><circle class="st0" cx="41" cy="31" r="2"/><path class="st0" d="M32 32.5c-.6 0-1-.4-1-1v-15c0-.6.4-1 1-1s1 .4 1 1v15c0 .6-.4 1-1 1zm-5 1H11c-1.1 0-2-.9-2-2v-15c0-1.1.9-2 2-2h16c1.1 0 2 .9 2 2v15c0 1.1-.9 2-2 2zm0-2v1-1zm-16-15v15h16v-15H11zm31.8 1h-3.5c-.6 0-1-.4-1-1s.4-1 1-1h3.5c.6 0 1 .4 1 1s-.5 1-1 1zm0 3h-3.5c-.6 0-1-.4-1-1s.4-1 1-1h3.5c.6 0 1 .4 1 1s-.5 1-1 1z"/></svg>