<svg id="Слой_1" xmlns="http://www.w3.org/2000/svg" viewBox="0 0 51.7 46.1"><style>.st0{fill:#4daf4f}</style><g id="oven"><path class="st0" d="M43.7 42.1h-35v-39h35v39zm-33-2h31v-35h-31v35z"/><circle class="st0" cx="16.1" cy="11.7" r="2"/><circle class="st0" cx="23.1" cy="11.7" r="2"/><path class="st0" d="M9.7 35.1h32v2h-32z"/><circle class="st0" cx="30.1" cy="11.7" r="2"/><circle class="st0" cx="37.1" cy="11.7" r="2"/><path class="st0" d="M38.7 30.1c0 1.1-.9 2-2 2h-21c-1.1 0-2-.9-2-2v-11c0-1.1.9-2 2-2h21c1.1 0 2 .9 2 2v11zm-23-11v11h21v-11h-21z"/></g></svg>