<svg id="Слой_1" xmlns="http://www.w3.org/2000/svg" viewBox="0 0 51.7 46.1"><style>.st0{fill:#4daf4f}</style><path class="st0" d="M13.7 39.5h-7v-9.1c-2.8-.5-5-2.9-5-5.9 0-3.3 2.7-6 6-6s6 2.7 6 6v15zm-5-2h3v-13c0-2.2-1.8-4-4-4s-4 1.8-4 4 1.8 4 4 4h1v9z"/><circle class="st0" cx="25.6" cy="14.3" r="1"/><circle class="st0" cx="25.6" cy="18.3" r="1"/><circle class="st0" cx="29.6" cy="16.3" r="1"/><circle class="st0" cx="21.6" cy="16.3" r="1"/><circle class="st0" cx="7.7" cy="24.5" r="1"/><path class="st0" d="M44.7 39.5h-7v-15c0-3.3 2.7-6 6-6s6 2.7 6 6c0 3-2.2 5.4-5 5.9v9.1zm-5-2h3v-9h1c2.2 0 4-1.8 4-4s-1.8-4-4-4-4 1.8-4 4v13z"/><circle class="st0" cx="43.7" cy="24.5" r="1"/><path class="st0" d="M12.7 37.5h26v2h-26zm0-6h26v2h-26zM44 19.7h-2v-5.5c0-2.8-2.4-5-5.4-5H15.4c-3 0-5.4 2.2-5.4 5v5.5H8v-5.5c0-3.9 3.3-7 7.4-7h21.3c4.1 0 7.4 3.1 7.4 7v5.5zm-5.3 6.7C34.5 25.5 30 25 25.5 25c-4.2 0-8.3.4-12.3 1.2l-.4-2c4.2-.7 8.4-1.2 12.7-1.2 4.7 0 9.3.5 13.6 1.4l-.4 2z"/></svg>