<svg id="Слой_1" xmlns="http://www.w3.org/2000/svg" viewBox="0 0 51.7 46.1"><style>.st0{fill:#4daf4f}</style><g id="refrigerator"><path class="st0" d="M38.7 43.1c0 1.7-1.3 3-3 3h-20c-1.7 0-3-1.3-3-3v-40c0-1.7 1.3-3 3-3h20c1.7 0 3 1.3 3 3v40zm-2-40c0-.6-.4-1-1-1h-20c-.6 0-1 .4-1 1v40c0 .6.4 1 1 1h20c.6 0 1-.4 1-1v-40z"/><path class="st0" d="M14.7 14.1h23v2h-23zm0 25h23v2h-23zm19-14.4c-.6 0-1-.4-1-1v-4c0-.6.4-1 1-1s1 .4 1 1v4c0 .5-.4 1-1 1zm0-14c-.6 0-1-.4-1-1v-4c0-.6.4-1 1-1s1 .4 1 1v4c0 .5-.4 1-1 1z"/></g></svg>