<svg id="Слой_1" xmlns="http://www.w3.org/2000/svg" viewBox="0 0 51.7 46.1"><style>.st0{fill:#4daf4f}</style><path class="st0" d="M33.5 42.8L16.8 30.3l12.4-10.9c1.1-.6 2.5-.5 3.5.2l6.5 4.8c1.2.9 1.6 2.3 1.2 3.7l-.1.1-.4.9-6.4 13.7zM20 30.2l12.8 9.5 5.7-12.2c.1-.5 0-1.1-.5-1.4l-6.5-4.8c-.4-.3-.9-.3-1.3-.1l-.8.7-9.4 8.3z"/><path class="st0" d="M35.4 23.8c-.2 0-.4-.1-.6-.2-.4-.3-.5-1-.2-1.4L47.7 4.6c.3-.4 1-.5 1.4-.2.4.3.5 1 .2 1.4L36.2 23.4c-.2.3-.5.4-.8.4z"/><path transform="rotate(-53.425 32.638 26.97)" class="st0" d="M31.6 20.4h2v13.2h-2z"/><path class="st0" d="M23 34.7c-.2 0-.4-.1-.6-.2-.4-.3-.5-1-.2-1.4l4.1-5.5c.3-.4 1-.5 1.4-.2.4.3.5 1 .2 1.4l-4.1 5.5c-.2.3-.5.4-.8.4zm3.7 2.7c-.2 0-.4-.1-.6-.2-.4-.3-.5-1-.2-1.4l2.7-3.7c.3-.4 1-.5 1.4-.2.4.3.5 1 .2 1.4L27.5 37c-.2.3-.5.4-.8.4zm-19-1.9c-2.8 0-5-2.3-5-5 0-2.8 2.3-5 5-5s5 2.3 5 5-2.3 5-5 5zm0-8.1c-1.7 0-3 1.4-3 3s1.4 3 3 3c1.7 0 3-1.4 3-3s-1.4-3-3-3zM18 22.3c-1.8 0-3.3-1.5-3.3-3.3s1.5-3.3 3.3-3.3 3.3 1.5 3.3 3.3-1.5 3.3-3.3 3.3zm0-4.6c-.7 0-1.3.6-1.3 1.3s.6 1.3 1.3 1.3 1.3-.6 1.3-1.3-.6-1.3-1.3-1.3zM5.4 19.4c-2.1 0-3.9-1.7-3.9-3.9s1.7-3.9 3.9-3.9 3.9 1.7 3.9 3.9-1.8 3.9-3.9 3.9zm0-5.7c-1 0-1.9.8-1.9 1.9s.8 1.9 1.9 1.9 1.9-.8 1.9-1.9-.9-1.9-1.9-1.9z"/></svg>