<svg id="Слой_1" xmlns="http://www.w3.org/2000/svg" viewBox="0 0 51.7 46.1"><style>.st0{fill:none;stroke:#4daf4f;stroke-width:2;stroke-miterlimit:10}.st1{fill:#4daf4f}</style><path class="st0" d="M33 10.4c0 4.2-7.5 10.2-7.5 10.2s-7.5-6-7.5-10.2m4 11.7v20.8"/><path class="st0" d="M33 22.5v-12c0-1.1-.9-2-2-2H20c-1.1 0-2 .9-2 2v12s2.8-1.3 7.5-1.3 7.5 1.3 7.5 1.3z"/><path class="st0" d="M32.8 8.5H37c1.1 0 2 .9 2 2.1v29.9c0 1.1-.9 2.1-2 2.1H14c-1.1 0-2-.9-2-2.1V10.6c0-1.1.9-2.1 2-2.1h3.7"/><circle class="st1" cx="26" cy="27" r="1.5"/><circle class="st1" cx="26" cy="32" r="1.5"/><circle class="st1" cx="26" cy="37" r="1.5"/><path class="st0" d="M18 11.6V7.4c0-1.7 1.4-3 3-3h9c1.6 0 3 1.3 3 3v3.8"/></svg>