<svg id="Слой_1" xmlns="http://www.w3.org/2000/svg" viewBox="0 0 51.7 46.1"><style>.st0{fill:#4daf4f}.st1{display:none}.st2{display:inline;fill:none;stroke:#4daf4f;stroke-width:2;stroke-linecap:round;stroke-miterlimit:10}</style><path class="st0" d="M41.5 13.5h-32c-.6 0-1-.4-1-1s.4-1 1-1h32c.6 0 1 .4 1 1s-.4 1-1 1zm0 7h-32c-.6 0-1-.4-1-1s.4-1 1-1h32c.6 0 1 .4 1 1s-.4 1-1 1zm0 7h-32c-.6 0-1-.4-1-1s.4-1 1-1h32c.6 0 1 .4 1 1s-.4 1-1 1zm0 7h-32c-.6 0-1-.4-1-1s.4-1 1-1h32c.6 0 1 .4 1 1s-.4 1-1 1z"/><path class="st0" d="M36 40c-.6 0-1-.4-1-1V7c0-.6.4-1 1-1s1 .4 1 1v32c0 .6-.4 1-1 1zm-7 0c-.6 0-1-.4-1-1V7c0-.6.4-1 1-1s1 .4 1 1v32c0 .6-.4 1-1 1zm-7 0c-.6 0-1-.4-1-1V7c0-.6.4-1 1-1s1 .4 1 1v32c0 .6-.4 1-1 1zm-7 0c-.6 0-1-.4-1-1V7c0-.6.4-1 1-1s1 .4 1 1v32c0 .6-.4 1-1 1z"/><g class="st1"><path class="st2" d="M10.5-56.5h32m-32 7h32m-32 7h32m-32 7h32M37-62v32m-7-32v32m-7-32v32m-7-32v32"/></g></svg>