<svg id="Слой_1" xmlns="http://www.w3.org/2000/svg" viewBox="0 0 51.7 46.1"><style>.st0{fill:#4daf4f}</style><path class="st0" d="M36.7 18H30v-1c0-4.8-4.5-5-5-5h-1V5h7c4.7 0 8.3 2 8.5 2.1l.7.4L36.7 18zm-4.8-2h3.3l2.5-7.5C36.6 8 34 7 31 7h-5v3.1c2.3.3 5.5 1.9 5.9 5.9zm6.9 28.5H24.7l-.3-.3c-3.3-3.6-2.7-8.4-2.1-11 .6-2.5 2-3.8 3.5-5.2.5-.4.9-.9 1.4-1.3.9-.9 1.8-2.5 2.2-3.7.1-.2.3-2 .5-3.6l.1-.9h6.4l.3.4c7.9 11 2.5 24.4 2.3 25l-.2.6zm-13.2-2h11.8c.9-2.7 3.9-13.3-2-22h-3.6c-.2 1.4-.4 2.7-.5 3-.4 1.4-1.6 3.3-2.7 4.5-.5.5-1 1-1.5 1.4-1.4 1.3-2.5 2.3-3 4.2-.3 2.1-.8 6 1.5 8.9z"/><circle class="st0" cx="11.4" cy="13.8" r="1"/><circle class="st0" cx="14.2" cy="11.3" r="1"/><circle class="st0" cx="17.3" cy="9.1" r="1"/><circle class="st0" cx="14.2" cy="6.8" r="1"/><circle class="st0" cx="11.4" cy="4.6" r="1"/><circle class="st0" cx="11.4" cy="9.1" r="1"/><path class="st0" d="M22 11.9c-.6 0-1-.4-1-1v-5c0-.6.4-1 1-1s1 .4 1 1v5c0 .5-.4 1-1 1zm9.5 27.7c-.2 0-.4-.1-.6-.2-.5-.3-.6-.9-.3-1.4 3.9-5.8 2.2-18.3 2.2-18.4-.1-.5.3-1.1.9-1.1.6-.1 1.1.3 1.1.9.1.5 1.8 13.4-2.5 19.8-.2.3-.5.4-.8.4z"/><path class="st0" d="M22.5 32.5h17v2h-17zM27.8 18h-.3c-.5-.2-.8-.7-.7-1.3l1.4-4.3c.2-.5.7-.8 1.3-.7.5.2.8.7.7 1.3l-1.4 4.3c-.2.4-.5.7-1 .7z"/></svg>