<svg id="Слой_1" xmlns="http://www.w3.org/2000/svg" viewBox="0 0 51.7 46.1"><style>.st0{fill:#4daf4f}</style><g id="rubbish"><path class="st0" d="M36.2 43.1H15.9c-1.4 0-3.2-1.5-3.2-2.9V13.1h2v27.1c0 .2.8.9 1.2.9h20.3c.2 0 .5-.5.5-.9V13.1h2v27.1c0 1.3-1 2.9-2.5 2.9z"/><path class="st0" d="M19.7 37c-.6 0-1-.4-1-1V19c0-.6.4-1 1-1s1 .4 1 1v17c0 .6-.4 1-1 1zm6 0c-.6 0-1-.4-1-1V19c0-.6.4-1 1-1s1 .4 1 1v17c0 .6-.4 1-1 1zm6 0c-.6 0-1-.4-1-1V19c0-.6.4-1 1-1s1 .4 1 1v17c0 .6-.4 1-1 1zm10-24.9c0 1.1-.9 2-2 2h-28c-1.1 0-2-.9-2-2v-3c0-1.1.9-2 2-2h28c1.1 0 2 .9 2 2v3zm-30-3v3h28v-3h-28z"/><path class="st0" d="M33.7 8.1h-2v-3H20.3c-.1 0-.5-.1-.5 0v3h-2V5c0-1.2 1.5-1.9 2.5-1.9h12c.5 0 .9.2 1 .3.4.4.4 1 .4 1.4v3.3z"/></g></svg>