<svg id="Слой_1" xmlns="http://www.w3.org/2000/svg" viewBox="0 0 51.7 46.1"><style>.st0{fill:#4daf4f}</style><path class="st0" d="M30.7 21c-.9 0-2.6-.4-3.5-3-.7-2.1-.4-5.5 1.3-7.5 1-1.2 2.3-1.7 3.9-1.5 3.1.5 3.9 4.2 3.6 6.7-.4 2.6-2.7 5-5 5.2-.1.1-.2.1-.3.1zm1.1-10c-.6 0-1.2.3-1.7.8-1.2 1.4-1.4 4-.9 5.5.4 1.1.9 1.7 1.7 1.6 1.4-.1 2.9-1.9 3.2-3.5.2-1.4-.1-4.2-1.9-4.4h-.4zM21 21.2c-.3 0-.6 0-.9-.1-1.2-.3-2.3-1.3-2.9-2.6-1-2-1.4-5.3-.1-7.4.7-1.3 1.9-2 3.5-2.1 1.1-.1 2.1.3 3 1 1.2 1 1.9 2.8 2 4.8 0 .9 0 4.1-2.3 5.7-.9.5-1.6.7-2.3.7zM20.7 11h-.1c-.9 0-1.5.4-1.9 1.1-.8 1.4-.6 4 .2 5.5.4.8 1 1.4 1.7 1.5.5.1.9 0 1.4-.3 1.1-.7 1.4-2.5 1.4-3.9-.1-1.4-.6-2.7-1.3-3.4-.5-.3-.9-.5-1.4-.5zM12 27.1c-.3 0-.5 0-.8-.1-1-.2-1.8-.8-2.4-1.7-1-1.5-1-3.7-.7-5.1.3-1.4 1.2-2.6 2.4-3.3.9-.5 1.9-.5 2.8-.2 2 .8 2.7 3.1 2.7 5.1 0 1.9-.7 3.6-1.9 4.5-.6.5-1.3.8-2.1.8zm.1-8.6c-.2 0-.4.1-.6.2-.6.3-1.2 1.1-1.4 1.9-.2 1.1-.2 2.7.4 3.6.3.4.6.7 1.1.8.5.1.9 0 1.3-.3.7-.5 1.1-1.7 1.1-3 0-1.2-.3-2.8-1.4-3.2-.2.1-.4 0-.5 0zm26.6 9.3c-.9 0-1.8-.4-2.5-1.3s-1-2.1-.9-3.4c.2-1.8 1.2-4.2 2.9-5.2 1-.6 2.1-.7 3.1-.3 1 .4 1.7 1 2.1 2 .5 1.2.4 2.8-.3 4.4-.9 2.1-2.5 3.5-4 3.7-.1.1-.3.1-.4.1zm1.3-8.4c-.3 0-.5.1-.8.2-1 .7-1.8 2.4-2 3.7-.1.8.1 1.4.5 1.9.5.6.8.6 1.1.5.9-.1 1.9-1.2 2.5-2.6.5-1.1.6-2.1.3-2.8-.2-.4-.5-.7-1-.9-.2.1-.4 0-.6 0zM17.3 39.1c-2.6 0-3.8-1.3-4.4-2.6-.9-2 0-4.1 2.3-6.1.4-.3.8-.7 1.2-1 1.2-1 2.4-1.9 3.3-3.1.3-.4.6-.8.8-1.2.6-.9 1.2-1.8 2-2.4.4-.4.9-.6 1.4-.8 2-.8 4.5 0 6 1.8.3.4.7.9 1 1.3 1.1 1.4 2.1 2.7 3.5 3.8.4.3.8.5 1.2.8 1.2.7 2.5 1.5 3.2 3 .9 2 .4 4.2-1.2 5.3-1.9 1.3-4.5 1.1-5.5.9-4.7-.7-8.8-.7-13 .1-.6.1-1.2.2-1.8.2zM24 24.2c-.6.5-1.1 1.2-1.6 2-.3.4-.6.9-.9 1.3-1.1 1.4-2.4 2.4-3.6 3.4-.4.3-.8.7-1.2 1-.9.8-2.4 2.3-1.8 3.8.2.5.8 1.8 4 1.2 4.4-.8 8.7-.9 13.7-.1 1.3.2 3 .2 4-.6 1-.7 1-2 .6-2.9-.4-1-1.3-1.5-2.4-2.1-.5-.3-.9-.6-1.4-.9-1.6-1.2-2.7-2.7-3.9-4.2-.3-.4-.6-.8-1-1.3-.8-1-2.3-1.8-3.7-1.2-.3.2-.6.4-.8.6z"/></svg>