<svg id="Слой_1" xmlns="http://www.w3.org/2000/svg" viewBox="0 0 51.7 46.1"><style>.st0{fill:#4daf4f}</style><g id="ware"><path class="st0" d="M25.8 43c-11 0-20-9-20-20s9-20 20-20 20 9 20 20-9 20-20 20zm0-38c-9.9 0-18 8.1-18 18s8.1 18 18 18 18-8.1 18-18-8.1-18-18-18z"/><path class="st0" d="M25.8 38c-8.3 0-15-6.7-15-15s6.7-15 15-15 15 6.7 15 15-6.8 15-15 15zm0-28c-7.2 0-13 5.8-13 13s5.8 13 13 13 13-5.8 13-13-5.9-13-13-13z"/><path class="st0" d="M34.6 20.6c-.4 0-.8-.2-.9-.6-1-2.6-3.3-4.6-6-5.2-.5-.1-.9-.7-.7-1.2.1-.5.7-.9 1.2-.7 3.4.8 6.2 3.2 7.4 6.4.2.5-.1 1.1-.6 1.3-.1-.1-.3 0-.4 0z"/></g></svg>